<mxfile modified="2021-05-05T09:52:29.238Z" host="app.diagrams.net" agent="5.0 (Windows NT 10.0; Win64; x64) AppleWebKit/537.36 (KHTML, like Gecko) Chrome/90.0.4430.93 Safari/537.36" etag="8uoTDiZLH8AMNZ-rOKGZ" compressed="false" version="14.6.9" type="google" pages="7">
  <diagram name="MESSAGE VIEW" id="BiBGHzaILfBTHN370BNS">
    <mxGraphModel dx="1130" dy="406" grid="1" gridSize="10" guides="1" tooltips="1" connect="1" arrows="1" fold="1" page="1" pageScale="1" pageWidth="827" pageHeight="1169" math="0" shadow="0">
      <root>
        <mxCell id="R8TREp4R48ySWT2SM_cx-0" />
        <mxCell id="R8TREp4R48ySWT2SM_cx-1" value="Title" style="" parent="R8TREp4R48ySWT2SM_cx-0" />
        <mxCell id="R8TREp4R48ySWT2SM_cx-2" value="Information&lt;br&gt;Message View" style="text;html=1;strokeColor=none;fillColor=none;align=center;verticalAlign=middle;whiteSpace=wrap;rounded=0;fontSize=48;opacity=30;" parent="R8TREp4R48ySWT2SM_cx-1" vertex="1">
          <mxGeometry x="160" y="200" width="480" height="320" as="geometry" />
        </mxCell>
        <mxCell id="R8TREp4R48ySWT2SM_cx-3" value="About" style="" parent="R8TREp4R48ySWT2SM_cx-0" />
      </root>
    </mxGraphModel>
  </diagram>
  <diagram name="Messages/Mapping" id="KIKJTfYSKipbs0yRF9Vw">
    <mxGraphModel dx="1886" dy="818" grid="1" gridSize="10" guides="1" tooltips="1" connect="1" arrows="1" fold="1" page="1" pageScale="1" pageWidth="827" pageHeight="1169" math="0" shadow="0">
      <root>
        <mxCell id="p0aIvf_cxXPE5g4DyKnc-0" />
        <mxCell id="p0aIvf_cxXPE5g4DyKnc-1" value="Context/Legend" parent="p0aIvf_cxXPE5g4DyKnc-0" />
        <mxCell id="p0aIvf_cxXPE5g4DyKnc-2" value="" style="rounded=0;whiteSpace=wrap;html=1;fontSize=10;align=left;container=1;collapsible=0;fontColor=#B3B3B3;strokeColor=#B3B3B3;" parent="p0aIvf_cxXPE5g4DyKnc-1" vertex="1">
          <mxGeometry x="440" y="190" width="240" height="50" as="geometry" />
        </mxCell>
        <mxCell id="p0aIvf_cxXPE5g4DyKnc-3" value="" style="whiteSpace=wrap;html=1;aspect=fixed;fillColor=none;strokeColor=#82b366;fontSize=10;align=left;fontStyle=2;strokeWidth=2;" parent="p0aIvf_cxXPE5g4DyKnc-2" vertex="1">
          <mxGeometry x="13.294460641399398" y="16.666666666666668" width="8.333333333333334" height="8.333333333333334" as="geometry" />
        </mxCell>
        <mxCell id="p0aIvf_cxXPE5g4DyKnc-4" value="" style="whiteSpace=wrap;html=1;aspect=fixed;fillColor=none;strokeColor=#d6b656;fontSize=10;align=left;fontStyle=2;strokeWidth=2;" parent="p0aIvf_cxXPE5g4DyKnc-2" vertex="1">
          <mxGeometry x="13.294460641399398" y="28" width="8.333333333333334" height="8.333333333333334" as="geometry" />
        </mxCell>
        <mxCell id="p0aIvf_cxXPE5g4DyKnc-5" value="" style="whiteSpace=wrap;html=1;aspect=fixed;fillColor=none;strokeColor=#6c8ebf;fontSize=10;align=left;fontStyle=2;strokeWidth=2;" parent="p0aIvf_cxXPE5g4DyKnc-2" vertex="1">
          <mxGeometry x="13.294460641399398" y="39.333333333333336" width="8.333333333333334" height="8.333333333333334" as="geometry" />
        </mxCell>
        <mxCell id="p0aIvf_cxXPE5g4DyKnc-6" value="Internal, System (underlying optional Tenants)&amp;nbsp;" style="text;html=1;strokeColor=none;fillColor=none;align=left;verticalAlign=middle;whiteSpace=wrap;rounded=0;fontSize=10;fontStyle=2;fontColor=#B3B3B3;" parent="p0aIvf_cxXPE5g4DyKnc-2" vertex="1">
          <mxGeometry x="26.5945189504373" y="16.666666666666668" width="213.40548104956264" height="8.333333333333334" as="geometry" />
        </mxCell>
        <mxCell id="p0aIvf_cxXPE5g4DyKnc-7" value="Internal, (optionally) Tenanted" style="text;html=1;strokeColor=none;fillColor=none;align=left;verticalAlign=middle;whiteSpace=wrap;rounded=0;fontSize=10;fontStyle=2;fontColor=#B3B3B3;" parent="p0aIvf_cxXPE5g4DyKnc-2" vertex="1">
          <mxGeometry x="26.59" y="30" width="213.41" height="6.33" as="geometry" />
        </mxCell>
        <mxCell id="p0aIvf_cxXPE5g4DyKnc-8" value="External, Versioned Contracts/Msgs" style="text;html=1;strokeColor=none;fillColor=none;align=left;verticalAlign=middle;whiteSpace=wrap;rounded=0;fontSize=10;fontStyle=2;fontColor=#B3B3B3;" parent="p0aIvf_cxXPE5g4DyKnc-2" vertex="1">
          <mxGeometry x="26.5945189504373" y="39.333333333333336" width="213.40548104956264" height="8.333333333333334" as="geometry" />
        </mxCell>
        <mxCell id="p0aIvf_cxXPE5g4DyKnc-9" value="Legend" style="text;html=1;strokeColor=none;fillColor=none;align=center;verticalAlign=middle;whiteSpace=wrap;rounded=0;fontSize=10;fontStyle=5;fontColor=#B3B3B3;" parent="p0aIvf_cxXPE5g4DyKnc-2" vertex="1">
          <mxGeometry x="26.588921282798815" width="159.53352769679296" height="16.666666666666668" as="geometry" />
        </mxCell>
        <mxCell id="p0aIvf_cxXPE5g4DyKnc-10" value="Diagram/ERD" parent="p0aIvf_cxXPE5g4DyKnc-0" />
        <mxCell id="3cGCetB-dPKB7HQXMxKE-0" value="Internal Entity" style="swimlane;childLayout=stackLayout;horizontal=1;fillColor=#d5e8d4;horizontalStack=0;resizeParent=1;resizeParentMax=0;resizeLast=0;collapsible=1;marginBottom=0;strokeColor=#82b366;strokeWidth=3;align=center;" parent="p0aIvf_cxXPE5g4DyKnc-10" vertex="1">
          <mxGeometry x="120" y="260" width="140" height="153" as="geometry" />
        </mxCell>
        <mxCell id="3cGCetB-dPKB7HQXMxKE-1" value="+ ID: uuid" style="text;strokeColor=none;fillColor=none;align=left;verticalAlign=top;spacingLeft=4;spacingRight=4;overflow=hidden;rotatable=0;points=[[0,0.5],[1,0.5]];portConstraint=eastwest;" parent="3cGCetB-dPKB7HQXMxKE-0" vertex="1">
          <mxGeometry y="23" width="140" height="26" as="geometry" />
        </mxCell>
        <mxCell id="3cGCetB-dPKB7HQXMxKE-2" value="+ State: enum" style="text;strokeColor=none;fillColor=none;align=left;verticalAlign=top;spacingLeft=4;spacingRight=4;overflow=hidden;rotatable=0;points=[[0,0.5],[1,0.5]];portConstraint=eastwest;" parent="3cGCetB-dPKB7HQXMxKE-0" vertex="1">
          <mxGeometry y="49" width="140" height="26" as="geometry" />
        </mxCell>
        <mxCell id="3cGCetB-dPKB7HQXMxKE-3" value="+ LastName: string" style="text;strokeColor=none;fillColor=none;align=left;verticalAlign=top;spacingLeft=4;spacingRight=4;overflow=hidden;rotatable=0;points=[[0,0.5],[1,0.5]];portConstraint=eastwest;" parent="3cGCetB-dPKB7HQXMxKE-0" vertex="1">
          <mxGeometry y="75" width="140" height="26" as="geometry" />
        </mxCell>
        <mxCell id="3cGCetB-dPKB7HQXMxKE-14" value="+ FirstN: string" style="text;strokeColor=none;fillColor=none;align=left;verticalAlign=top;spacingLeft=4;spacingRight=4;overflow=hidden;rotatable=0;points=[[0,0.5],[1,0.5]];portConstraint=eastwest;" parent="3cGCetB-dPKB7HQXMxKE-0" vertex="1">
          <mxGeometry y="101" width="140" height="26" as="geometry" />
        </mxCell>
        <mxCell id="3cGCetB-dPKB7HQXMxKE-4" value="+ SomethingPrivate: string&#xa;" style="text;strokeColor=none;fillColor=none;align=left;verticalAlign=top;spacingLeft=4;spacingRight=4;overflow=hidden;rotatable=0;points=[[0,0.5],[1,0.5]];portConstraint=eastwest;" parent="3cGCetB-dPKB7HQXMxKE-0" vertex="1">
          <mxGeometry y="127" width="140" height="26" as="geometry" />
        </mxCell>
        <mxCell id="3cGCetB-dPKB7HQXMxKE-6" value="External API Message" style="swimlane;childLayout=stackLayout;horizontal=1;fillColor=#dae8fc;horizontalStack=0;resizeParent=1;resizeParentMax=0;resizeLast=0;collapsible=1;marginBottom=0;strokeColor=#6c8ebf;strokeWidth=3;align=center;" parent="p0aIvf_cxXPE5g4DyKnc-10" vertex="1">
          <mxGeometry x="360" y="260" width="140" height="179" as="geometry" />
        </mxCell>
        <mxCell id="3cGCetB-dPKB7HQXMxKE-7" value="+ ID: uuid (publicly safe)" style="text;strokeColor=none;fillColor=none;align=left;verticalAlign=top;spacingLeft=4;spacingRight=4;overflow=hidden;rotatable=0;points=[[0,0.5],[1,0.5]];portConstraint=eastwest;" parent="3cGCetB-dPKB7HQXMxKE-6" vertex="1">
          <mxGeometry y="23" width="140" height="26" as="geometry" />
        </mxCell>
        <mxCell id="3cGCetB-dPKB7HQXMxKE-9" value="+ GivenName: string" style="text;strokeColor=none;fillColor=none;align=left;verticalAlign=top;spacingLeft=4;spacingRight=4;overflow=hidden;rotatable=0;points=[[0,0.5],[1,0.5]];portConstraint=eastwest;" parent="3cGCetB-dPKB7HQXMxKE-6" vertex="1">
          <mxGeometry y="49" width="140" height="26" as="geometry" />
        </mxCell>
        <mxCell id="3cGCetB-dPKB7HQXMxKE-10" value="+ Surname: string&#xa;" style="text;strokeColor=none;fillColor=none;align=left;verticalAlign=top;spacingLeft=4;spacingRight=4;overflow=hidden;rotatable=0;points=[[0,0.5],[1,0.5]];portConstraint=eastwest;" parent="3cGCetB-dPKB7HQXMxKE-6" vertex="1">
          <mxGeometry y="75" width="140" height="26" as="geometry" />
        </mxCell>
        <mxCell id="3cGCetB-dPKB7HQXMxKE-16" value="+ FullName: string" style="text;strokeColor=none;fillColor=none;align=left;verticalAlign=top;spacingLeft=4;spacingRight=4;overflow=hidden;rotatable=0;points=[[0,0.5],[1,0.5]];portConstraint=eastwest;" parent="3cGCetB-dPKB7HQXMxKE-6" vertex="1">
          <mxGeometry y="101" width="140" height="26" as="geometry" />
        </mxCell>
        <mxCell id="3cGCetB-dPKB7HQXMxKE-21" value="." style="text;strokeColor=none;fillColor=none;align=left;verticalAlign=top;spacingLeft=4;spacingRight=4;overflow=hidden;rotatable=0;points=[[0,0.5],[1,0.5]];portConstraint=eastwest;" parent="3cGCetB-dPKB7HQXMxKE-6" vertex="1">
          <mxGeometry y="127" width="140" height="26" as="geometry" />
        </mxCell>
        <mxCell id="3cGCetB-dPKB7HQXMxKE-22" value="+ ...etc...: int" style="text;strokeColor=none;fillColor=none;align=left;verticalAlign=top;spacingLeft=4;spacingRight=4;overflow=hidden;rotatable=0;points=[[0,0.5],[1,0.5]];portConstraint=eastwest;" parent="3cGCetB-dPKB7HQXMxKE-6" vertex="1">
          <mxGeometry y="153" width="140" height="26" as="geometry" />
        </mxCell>
        <mxCell id="3cGCetB-dPKB7HQXMxKE-11" value="" style="endArrow=classic;html=1;strokeWidth=4;exitX=1;exitY=0.5;exitDx=0;exitDy=0;entryX=0;entryY=0.5;entryDx=0;entryDy=0;fillColor=#ffe6cc;strokeColor=#d79b00;" parent="p0aIvf_cxXPE5g4DyKnc-10" source="3cGCetB-dPKB7HQXMxKE-1" target="3cGCetB-dPKB7HQXMxKE-7" edge="1">
          <mxGeometry width="50" height="50" relative="1" as="geometry">
            <mxPoint x="390" y="290" as="sourcePoint" />
            <mxPoint x="440" y="240" as="targetPoint" />
          </mxGeometry>
        </mxCell>
        <mxCell id="3cGCetB-dPKB7HQXMxKE-12" value="" style="endArrow=classic;html=1;strokeWidth=4;exitX=1;exitY=0.5;exitDx=0;exitDy=0;entryX=0;entryY=0.5;entryDx=0;entryDy=0;fillColor=#d5e8d4;strokeColor=#82b366;" parent="p0aIvf_cxXPE5g4DyKnc-10" source="3cGCetB-dPKB7HQXMxKE-3" target="3cGCetB-dPKB7HQXMxKE-10" edge="1">
          <mxGeometry width="50" height="50" relative="1" as="geometry">
            <mxPoint x="270" y="306" as="sourcePoint" />
            <mxPoint x="460" y="306" as="targetPoint" />
          </mxGeometry>
        </mxCell>
        <mxCell id="3cGCetB-dPKB7HQXMxKE-13" value="" style="endArrow=classic;html=1;strokeWidth=4;exitX=1;exitY=0.5;exitDx=0;exitDy=0;entryX=0;entryY=0.5;entryDx=0;entryDy=0;edgeStyle=elbowEdgeStyle;fillColor=#d5e8d4;strokeColor=#82b366;" parent="p0aIvf_cxXPE5g4DyKnc-10" source="3cGCetB-dPKB7HQXMxKE-14" target="3cGCetB-dPKB7HQXMxKE-9" edge="1">
          <mxGeometry width="50" height="50" relative="1" as="geometry">
            <mxPoint x="270" y="358" as="sourcePoint" />
            <mxPoint x="460" y="332" as="targetPoint" />
          </mxGeometry>
        </mxCell>
        <mxCell id="3cGCetB-dPKB7HQXMxKE-15" value="" style="endArrow=cross;html=1;strokeWidth=4;exitX=1;exitY=0.5;exitDx=0;exitDy=0;endFill=0;fillColor=#f8cecc;strokeColor=#b85450;entryX=0;entryY=0.5;entryDx=0;entryDy=0;" parent="p0aIvf_cxXPE5g4DyKnc-10" source="3cGCetB-dPKB7HQXMxKE-4" target="3cGCetB-dPKB7HQXMxKE-21" edge="1">
          <mxGeometry width="50" height="50" relative="1" as="geometry">
            <mxPoint x="270" y="358" as="sourcePoint" />
            <mxPoint x="400" y="400" as="targetPoint" />
          </mxGeometry>
        </mxCell>
        <mxCell id="3cGCetB-dPKB7HQXMxKE-17" value="" style="endArrow=classic;html=1;strokeWidth=4;endFill=1;startArrow=oval;startFill=1;fillColor=#dae8fc;strokeColor=#6c8ebf;entryX=0;entryY=0.5;entryDx=0;entryDy=0;" parent="p0aIvf_cxXPE5g4DyKnc-10" target="3cGCetB-dPKB7HQXMxKE-16" edge="1">
          <mxGeometry width="50" height="50" relative="1" as="geometry">
            <mxPoint x="320" y="374" as="sourcePoint" />
            <mxPoint x="350" y="374" as="targetPoint" />
          </mxGeometry>
        </mxCell>
        <mxCell id="3cGCetB-dPKB7HQXMxKE-18" value="" style="endArrow=classic;html=1;strokeWidth=4;endFill=1;startArrow=oval;startFill=1;fillColor=#dae8fc;strokeColor=#6c8ebf;" parent="p0aIvf_cxXPE5g4DyKnc-10" edge="1">
          <mxGeometry width="50" height="50" relative="1" as="geometry">
            <mxPoint x="310" y="230" as="sourcePoint" />
            <mxPoint x="310" y="300" as="targetPoint" />
          </mxGeometry>
        </mxCell>
        <mxCell id="3cGCetB-dPKB7HQXMxKE-19" value="XOR Modifier" style="text;html=1;strokeColor=none;fillColor=none;align=center;verticalAlign=middle;whiteSpace=wrap;rounded=0;" parent="p0aIvf_cxXPE5g4DyKnc-10" vertex="1">
          <mxGeometry x="290" y="190" width="40" height="20" as="geometry" />
        </mxCell>
        <mxCell id="p0aIvf_cxXPE5g4DyKnc-49" value="Note" parent="p0aIvf_cxXPE5g4DyKnc-0" />
        <mxCell id="3cGCetB-dPKB7HQXMxKE-23" value="Note:&lt;br&gt;&lt;br&gt;XORing a &lt;u&gt;private&lt;/u&gt;&amp;nbsp;internal system wide UUID over an entity tracking UUID obfuscates the ID outside the system in a non-destructive way: XORing the return Message again gets back to the original internal UUID." style="shape=note;whiteSpace=wrap;html=1;size=14;verticalAlign=top;align=left;spacingTop=-6;rounded=0;strokeColor=#000000;strokeWidth=1;fillColor=none;" parent="p0aIvf_cxXPE5g4DyKnc-49" vertex="1">
          <mxGeometry x="520" y="260" width="160" height="180" as="geometry" />
        </mxCell>
        <mxCell id="p0aIvf_cxXPE5g4DyKnc-51" value="Title/Diagram" style="" parent="p0aIvf_cxXPE5g4DyKnc-0" />
        <mxCell id="p0aIvf_cxXPE5g4DyKnc-58" value="&lt;font style=&quot;font-size: 12px&quot;&gt;Diagram: Information Messages -&amp;nbsp;Mapping&lt;/font&gt;" style="text;strokeColor=none;fillColor=none;html=1;fontSize=24;fontStyle=2;verticalAlign=middle;align=left;shadow=0;glass=0;comic=0;opacity=30;fontColor=#808080;" parent="p0aIvf_cxXPE5g4DyKnc-51" vertex="1">
          <mxGeometry x="120" y="440" width="480" height="20" as="geometry" />
        </mxCell>
        <mxCell id="p0aIvf_cxXPE5g4DyKnc-52" value="Title/Page" parent="p0aIvf_cxXPE5g4DyKnc-0" visible="0" />
        <mxCell id="p0aIvf_cxXPE5g4DyKnc-53" value="" style="group;fontSize=12;movable=0;resizable=0;rotatable=0;deletable=0;editable=0;connectable=0;" parent="p0aIvf_cxXPE5g4DyKnc-52" vertex="1" connectable="0">
          <mxGeometry x="120" y="120" width="560" height="50" as="geometry" />
        </mxCell>
        <mxCell id="p0aIvf_cxXPE5g4DyKnc-54" value="&lt;font style=&quot;font-size: 11px&quot;&gt;Base Logical Module - Information -&amp;nbsp;System Messages&lt;/font&gt;" style="text;strokeColor=none;fillColor=none;html=1;fontSize=24;fontStyle=1;verticalAlign=middle;align=left;shadow=0;glass=0;comic=0;opacity=30;fontColor=#808080;" parent="p0aIvf_cxXPE5g4DyKnc-53" vertex="1">
          <mxGeometry width="485.3333333333333" height="40" as="geometry" />
        </mxCell>
        <mxCell id="p0aIvf_cxXPE5g4DyKnc-55" value="" style="line;strokeWidth=2;html=1;shadow=0;glass=0;comic=0;fillColor=none;fontSize=10;fontColor=#CCCCCC;labelBackgroundColor=none;strokeColor=#CCCCCC;" parent="p0aIvf_cxXPE5g4DyKnc-53" vertex="1">
          <mxGeometry y="35" width="560" height="10" as="geometry" />
        </mxCell>
        <UserObject label="" tooltip="ABOUT&#xa;&#xa;It&#39;s easy to forget to plan Notifications beyond something that needs doing at some point. &#xa;But they require far more attention. They are Views of the system, just like any Presentation layer View -- except that they are using an ancient technology protocol (more or less from the same era as the teletype, prior to faxes...) to get the Output View in front of the end user.&#xa;&#xa;&#xa;&#xa;Plan for their Attributes, Structure, Formatting, Sequence, Triggers and Delivery as carefully as one would any current HTML5 based Output View." id="p0aIvf_cxXPE5g4DyKnc-56">
          <mxCell style="shape=image;html=1;verticalAlign=top;verticalLabelPosition=bottom;labelBackgroundColor=#ffffff;imageAspect=0;aspect=fixed;image=https://cdn1.iconfinder.com/data/icons/hawcons/32/699014-icon-28-information-128.png;shadow=0;dashed=0;fontFamily=Helvetica;fontSize=12;fontColor=#000000;align=center;strokeColor=#000000;fillColor=#505050;dashPattern=1 1;" parent="p0aIvf_cxXPE5g4DyKnc-53" vertex="1">
            <mxGeometry x="540" y="10" width="20" height="20" as="geometry" />
          </mxCell>
        </UserObject>
        <mxCell id="p0aIvf_cxXPE5g4DyKnc-57" value="About" parent="p0aIvf_cxXPE5g4DyKnc-0" />
      </root>
    </mxGraphModel>
  </diagram>
  <diagram name="Messages/Service Facade" id="g1Oq5ZkUUsT7XgE_7fyJ">
    <mxGraphModel dx="1886" dy="818" grid="1" gridSize="10" guides="1" tooltips="1" connect="1" arrows="1" fold="1" page="1" pageScale="1" pageWidth="827" pageHeight="1169" math="0" shadow="0">
      <root>
        <mxCell id="LXPPgQ5MOTWN8ZTsV5Gr-0" />
        <mxCell id="LXPPgQ5MOTWN8ZTsV5Gr-1" value="Context/Legend" parent="LXPPgQ5MOTWN8ZTsV5Gr-0" />
        <mxCell id="LXPPgQ5MOTWN8ZTsV5Gr-2" value="" style="rounded=0;whiteSpace=wrap;html=1;fontSize=10;align=left;container=1;collapsible=0;fontColor=#B3B3B3;strokeColor=#B3B3B3;" parent="LXPPgQ5MOTWN8ZTsV5Gr-1" vertex="1">
          <mxGeometry x="480" y="170" width="240" height="50" as="geometry" />
        </mxCell>
        <mxCell id="LXPPgQ5MOTWN8ZTsV5Gr-3" value="" style="whiteSpace=wrap;html=1;aspect=fixed;fillColor=none;strokeColor=#82b366;fontSize=10;align=left;fontStyle=2;strokeWidth=2;" parent="LXPPgQ5MOTWN8ZTsV5Gr-2" vertex="1">
          <mxGeometry x="13.294460641399398" y="16.666666666666668" width="8.333333333333334" height="8.333333333333334" as="geometry" />
        </mxCell>
        <mxCell id="LXPPgQ5MOTWN8ZTsV5Gr-4" value="" style="whiteSpace=wrap;html=1;aspect=fixed;fillColor=none;strokeColor=#d6b656;fontSize=10;align=left;fontStyle=2;strokeWidth=2;" parent="LXPPgQ5MOTWN8ZTsV5Gr-2" vertex="1">
          <mxGeometry x="13.294460641399398" y="28" width="8.333333333333334" height="8.333333333333334" as="geometry" />
        </mxCell>
        <mxCell id="LXPPgQ5MOTWN8ZTsV5Gr-5" value="" style="whiteSpace=wrap;html=1;aspect=fixed;fillColor=none;strokeColor=#6c8ebf;fontSize=10;align=left;fontStyle=2;strokeWidth=2;" parent="LXPPgQ5MOTWN8ZTsV5Gr-2" vertex="1">
          <mxGeometry x="13.294460641399397" y="39.333333333333336" width="8.333333333333334" height="8.333333333333334" as="geometry" />
        </mxCell>
        <mxCell id="LXPPgQ5MOTWN8ZTsV5Gr-6" value="Internal, System (underlying optional Tenants)&amp;nbsp;" style="text;html=1;strokeColor=none;fillColor=none;align=left;verticalAlign=middle;whiteSpace=wrap;rounded=0;fontSize=10;fontStyle=2;fontColor=#B3B3B3;" parent="LXPPgQ5MOTWN8ZTsV5Gr-2" vertex="1">
          <mxGeometry x="26.5945189504373" y="16.666666666666668" width="213.40548104956264" height="8.333333333333334" as="geometry" />
        </mxCell>
        <mxCell id="LXPPgQ5MOTWN8ZTsV5Gr-7" value="Internal, (optionally) Tenanted" style="text;html=1;strokeColor=none;fillColor=none;align=left;verticalAlign=middle;whiteSpace=wrap;rounded=0;fontSize=10;fontStyle=2;fontColor=#B3B3B3;" parent="LXPPgQ5MOTWN8ZTsV5Gr-2" vertex="1">
          <mxGeometry x="26.59" y="30" width="213.41" height="6.33" as="geometry" />
        </mxCell>
        <mxCell id="LXPPgQ5MOTWN8ZTsV5Gr-8" value="External, Versioned Contracts/Msgs" style="text;html=1;strokeColor=none;fillColor=none;align=left;verticalAlign=middle;whiteSpace=wrap;rounded=0;fontSize=10;fontStyle=2;fontColor=#B3B3B3;" parent="LXPPgQ5MOTWN8ZTsV5Gr-2" vertex="1">
          <mxGeometry x="26.5945189504373" y="39.333333333333336" width="213.40548104956264" height="8.333333333333334" as="geometry" />
        </mxCell>
        <mxCell id="LXPPgQ5MOTWN8ZTsV5Gr-9" value="Legend" style="text;html=1;strokeColor=none;fillColor=none;align=center;verticalAlign=middle;whiteSpace=wrap;rounded=0;fontSize=10;fontStyle=5;fontColor=#B3B3B3;" parent="LXPPgQ5MOTWN8ZTsV5Gr-2" vertex="1">
          <mxGeometry x="26.588921282798815" width="159.53352769679296" height="16.666666666666668" as="geometry" />
        </mxCell>
        <mxCell id="LXPPgQ5MOTWN8ZTsV5Gr-62" value="" style="endArrow=none;html=1;strokeWidth=1;entryX=0.5;entryY=1;entryDx=0;entryDy=0;exitX=0.5;exitY=0;exitDx=0;exitDy=0;" parent="LXPPgQ5MOTWN8ZTsV5Gr-1" source="LXPPgQ5MOTWN8ZTsV5Gr-45" target="LXPPgQ5MOTWN8ZTsV5Gr-48" edge="1">
          <mxGeometry width="50" height="50" relative="1" as="geometry">
            <mxPoint x="200" y="500" as="sourcePoint" />
            <mxPoint x="250" y="450" as="targetPoint" />
          </mxGeometry>
        </mxCell>
        <mxCell id="LXPPgQ5MOTWN8ZTsV5Gr-64" value="" style="endArrow=none;html=1;strokeWidth=1;entryX=0.5;entryY=1;entryDx=0;entryDy=0;exitX=0.5;exitY=0;exitDx=0;exitDy=0;" parent="LXPPgQ5MOTWN8ZTsV5Gr-1" source="LXPPgQ5MOTWN8ZTsV5Gr-47" target="LXPPgQ5MOTWN8ZTsV5Gr-45" edge="1">
          <mxGeometry width="50" height="50" relative="1" as="geometry">
            <mxPoint x="200" y="490" as="sourcePoint" />
            <mxPoint x="250" y="440" as="targetPoint" />
          </mxGeometry>
        </mxCell>
        <mxCell id="LXPPgQ5MOTWN8ZTsV5Gr-65" value="" style="endArrow=none;html=1;strokeWidth=1;entryX=0.25;entryY=1;entryDx=0;entryDy=0;exitX=0.5;exitY=0;exitDx=0;exitDy=0;" parent="LXPPgQ5MOTWN8ZTsV5Gr-1" source="LXPPgQ5MOTWN8ZTsV5Gr-49" target="LXPPgQ5MOTWN8ZTsV5Gr-47" edge="1">
          <mxGeometry width="50" height="50" relative="1" as="geometry">
            <mxPoint x="340" y="370" as="sourcePoint" />
            <mxPoint x="340" y="360" as="targetPoint" />
          </mxGeometry>
        </mxCell>
        <mxCell id="LXPPgQ5MOTWN8ZTsV5Gr-66" value="" style="endArrow=none;html=1;strokeWidth=1;entryX=0;entryY=0.5;entryDx=0;entryDy=0;exitX=1;exitY=0.5;exitDx=0;exitDy=0;" parent="LXPPgQ5MOTWN8ZTsV5Gr-1" source="LXPPgQ5MOTWN8ZTsV5Gr-49" target="LXPPgQ5MOTWN8ZTsV5Gr-52" edge="1">
          <mxGeometry width="50" height="50" relative="1" as="geometry">
            <mxPoint x="220" y="420" as="sourcePoint" />
            <mxPoint x="340" y="410" as="targetPoint" />
          </mxGeometry>
        </mxCell>
        <mxCell id="LXPPgQ5MOTWN8ZTsV5Gr-67" value="" style="endArrow=none;html=1;strokeWidth=1;entryX=0;entryY=0.5;entryDx=0;entryDy=0;exitX=1;exitY=0.5;exitDx=0;exitDy=0;" parent="LXPPgQ5MOTWN8ZTsV5Gr-1" source="LXPPgQ5MOTWN8ZTsV5Gr-52" target="LXPPgQ5MOTWN8ZTsV5Gr-50" edge="1">
          <mxGeometry width="50" height="50" relative="1" as="geometry">
            <mxPoint x="260" y="440" as="sourcePoint" />
            <mxPoint x="280" y="440" as="targetPoint" />
          </mxGeometry>
        </mxCell>
        <mxCell id="LXPPgQ5MOTWN8ZTsV5Gr-68" value="" style="endArrow=none;html=1;strokeWidth=1;entryX=0.5;entryY=0;entryDx=0;entryDy=0;exitX=0.75;exitY=1;exitDx=0;exitDy=0;" parent="LXPPgQ5MOTWN8ZTsV5Gr-1" source="LXPPgQ5MOTWN8ZTsV5Gr-47" target="LXPPgQ5MOTWN8ZTsV5Gr-50" edge="1">
          <mxGeometry width="50" height="50" relative="1" as="geometry">
            <mxPoint x="390" y="440" as="sourcePoint" />
            <mxPoint x="410" y="440" as="targetPoint" />
          </mxGeometry>
        </mxCell>
        <mxCell id="LXPPgQ5MOTWN8ZTsV5Gr-69" style="edgeStyle=elbowEdgeStyle;rounded=0;orthogonalLoop=1;jettySize=auto;html=1;startArrow=none;startFill=0;endArrow=none;endFill=0;strokeWidth=1;" parent="LXPPgQ5MOTWN8ZTsV5Gr-1" source="LXPPgQ5MOTWN8ZTsV5Gr-47" target="LXPPgQ5MOTWN8ZTsV5Gr-52" edge="1">
          <mxGeometry relative="1" as="geometry" />
        </mxCell>
        <mxCell id="LXPPgQ5MOTWN8ZTsV5Gr-70" style="edgeStyle=elbowEdgeStyle;rounded=0;orthogonalLoop=1;jettySize=auto;html=1;entryX=0.5;entryY=0;entryDx=0;entryDy=0;startArrow=none;startFill=0;endArrow=none;endFill=0;strokeWidth=1;" parent="LXPPgQ5MOTWN8ZTsV5Gr-1" source="LXPPgQ5MOTWN8ZTsV5Gr-49" target="LXPPgQ5MOTWN8ZTsV5Gr-51" edge="1">
          <mxGeometry relative="1" as="geometry" />
        </mxCell>
        <mxCell id="LXPPgQ5MOTWN8ZTsV5Gr-71" style="edgeStyle=elbowEdgeStyle;rounded=0;orthogonalLoop=1;jettySize=auto;html=1;entryX=0.5;entryY=0;entryDx=0;entryDy=0;startArrow=none;startFill=0;endArrow=none;endFill=0;strokeWidth=1;" parent="LXPPgQ5MOTWN8ZTsV5Gr-1" source="LXPPgQ5MOTWN8ZTsV5Gr-51" target="LXPPgQ5MOTWN8ZTsV5Gr-58" edge="1">
          <mxGeometry relative="1" as="geometry" />
        </mxCell>
        <mxCell id="LXPPgQ5MOTWN8ZTsV5Gr-72" style="edgeStyle=elbowEdgeStyle;rounded=0;orthogonalLoop=1;jettySize=auto;html=1;entryX=0;entryY=0.5;entryDx=0;entryDy=0;startArrow=none;startFill=0;endArrow=none;endFill=0;strokeWidth=1;exitX=1;exitY=0.5;exitDx=0;exitDy=0;" parent="LXPPgQ5MOTWN8ZTsV5Gr-1" source="LXPPgQ5MOTWN8ZTsV5Gr-58" target="LXPPgQ5MOTWN8ZTsV5Gr-57" edge="1">
          <mxGeometry relative="1" as="geometry" />
        </mxCell>
        <mxCell id="LXPPgQ5MOTWN8ZTsV5Gr-73" style="rounded=1;orthogonalLoop=1;jettySize=auto;html=1;entryX=0.5;entryY=0;entryDx=0;entryDy=0;startArrow=none;startFill=0;endArrow=none;endFill=0;strokeWidth=1;" parent="LXPPgQ5MOTWN8ZTsV5Gr-1" source="LXPPgQ5MOTWN8ZTsV5Gr-51" target="LXPPgQ5MOTWN8ZTsV5Gr-59" edge="1">
          <mxGeometry relative="1" as="geometry">
            <Array as="points">
              <mxPoint x="365" y="480" />
            </Array>
          </mxGeometry>
        </mxCell>
        <mxCell id="LXPPgQ5MOTWN8ZTsV5Gr-74" style="edgeStyle=none;rounded=0;orthogonalLoop=1;jettySize=auto;html=1;entryX=0;entryY=0.5;entryDx=0;entryDy=0;startArrow=none;startFill=0;endArrow=none;endFill=0;strokeWidth=1;" parent="LXPPgQ5MOTWN8ZTsV5Gr-1" source="LXPPgQ5MOTWN8ZTsV5Gr-59" target="LXPPgQ5MOTWN8ZTsV5Gr-60" edge="1">
          <mxGeometry relative="1" as="geometry" />
        </mxCell>
        <mxCell id="LXPPgQ5MOTWN8ZTsV5Gr-10" value="Diagram/ERD" parent="LXPPgQ5MOTWN8ZTsV5Gr-0" />
        <mxCell id="LXPPgQ5MOTWN8ZTsV5Gr-48" value="Service Client" style="rounded=0;whiteSpace=wrap;html=1;strokeColor=#6c8ebf;strokeWidth=1;fillColor=#dae8fc;align=center;verticalAlign=middle;opacity=40;" parent="LXPPgQ5MOTWN8ZTsV5Gr-10" vertex="1">
          <mxGeometry x="170" y="250" width="320" height="40" as="geometry" />
        </mxCell>
        <mxCell id="LXPPgQ5MOTWN8ZTsV5Gr-47" value="Application Services" style="rounded=0;whiteSpace=wrap;html=1;strokeColor=#82b366;strokeWidth=1;fillColor=#d5e8d4;align=center;verticalAlign=middle;opacity=40;" parent="LXPPgQ5MOTWN8ZTsV5Gr-10" vertex="1">
          <mxGeometry x="170" y="360" width="320" height="40" as="geometry" />
        </mxCell>
        <mxCell id="LXPPgQ5MOTWN8ZTsV5Gr-45" value="Service Facade" style="rounded=0;whiteSpace=wrap;html=1;strokeColor=#000000;strokeWidth=1;align=center;verticalAlign=top;gradientColor=#D5E8D4;fillColor=#A9C4EB;opacity=40;" parent="LXPPgQ5MOTWN8ZTsV5Gr-10" vertex="1">
          <mxGeometry x="170" y="310" width="320" height="40" as="geometry" />
        </mxCell>
        <mxCell id="LXPPgQ5MOTWN8ZTsV5Gr-41" value="Request Message" style="rounded=0;whiteSpace=wrap;html=1;strokeColor=#6c8ebf;strokeWidth=3;align=center;" parent="LXPPgQ5MOTWN8ZTsV5Gr-10" vertex="1">
          <mxGeometry x="180" y="280" width="80" height="40" as="geometry" />
        </mxCell>
        <mxCell id="LXPPgQ5MOTWN8ZTsV5Gr-42" value="Response Message" style="rounded=0;whiteSpace=wrap;html=1;strokeColor=#6c8ebf;strokeWidth=3;fillColor=#ffffff;align=center;" parent="LXPPgQ5MOTWN8ZTsV5Gr-10" vertex="1">
          <mxGeometry x="400" y="280" width="80" height="40" as="geometry" />
        </mxCell>
        <mxCell id="LXPPgQ5MOTWN8ZTsV5Gr-43" value="Internal Request Args Object" style="rounded=0;whiteSpace=wrap;html=1;strokeColor=#82b366;strokeWidth=3;align=center;" parent="LXPPgQ5MOTWN8ZTsV5Gr-10" vertex="1">
          <mxGeometry x="180" y="330" width="80" height="40" as="geometry" />
        </mxCell>
        <mxCell id="LXPPgQ5MOTWN8ZTsV5Gr-44" value="Internal Response Entity/ies" style="rounded=0;whiteSpace=wrap;html=1;strokeColor=#82b366;strokeWidth=3;fillColor=#ffffff;align=center;" parent="LXPPgQ5MOTWN8ZTsV5Gr-10" vertex="1">
          <mxGeometry x="400" y="330" width="80" height="40" as="geometry" />
        </mxCell>
        <mxCell id="LXPPgQ5MOTWN8ZTsV5Gr-49" value="Infrastructure Services" style="rounded=0;whiteSpace=wrap;html=1;strokeColor=#82b366;strokeWidth=1;fillColor=#d5e8d4;align=center;verticalAlign=middle;opacity=40;" parent="LXPPgQ5MOTWN8ZTsV5Gr-10" vertex="1">
          <mxGeometry x="170" y="410" width="80" height="40" as="geometry" />
        </mxCell>
        <mxCell id="LXPPgQ5MOTWN8ZTsV5Gr-50" value="Domain Services" style="rounded=0;whiteSpace=wrap;html=1;strokeColor=#82b366;strokeWidth=1;fillColor=#d5e8d4;align=center;verticalAlign=middle;opacity=40;" parent="LXPPgQ5MOTWN8ZTsV5Gr-10" vertex="1">
          <mxGeometry x="400" y="410" width="90" height="40" as="geometry" />
        </mxCell>
        <mxCell id="LXPPgQ5MOTWN8ZTsV5Gr-51" value="3rd Party Service Client Assemblies" style="rounded=0;whiteSpace=wrap;html=1;strokeColor=#82b366;strokeWidth=1;fillColor=#d5e8d4;align=center;verticalAlign=middle;opacity=40;" parent="LXPPgQ5MOTWN8ZTsV5Gr-10" vertex="1">
          <mxGeometry x="170" y="460" width="80" height="40" as="geometry" />
        </mxCell>
        <mxCell id="LXPPgQ5MOTWN8ZTsV5Gr-52" value="Shared Common Models, Messages&lt;br&gt;&amp;nbsp;&amp;amp; Entities" style="rounded=0;whiteSpace=wrap;html=1;strokeColor=#82b366;strokeWidth=1;fillColor=#d5e8d4;align=center;verticalAlign=middle;opacity=40;" parent="LXPPgQ5MOTWN8ZTsV5Gr-10" vertex="1">
          <mxGeometry x="270" y="410" width="110" height="40" as="geometry" />
        </mxCell>
        <mxCell id="LXPPgQ5MOTWN8ZTsV5Gr-53" value="Service Tier" style="rounded=0;whiteSpace=wrap;html=1;strokeColor=#666666;strokeWidth=1;fillColor=#f5f5f5;align=center;verticalAlign=middle;fontColor=#333333;horizontal=0;fontStyle=1" parent="LXPPgQ5MOTWN8ZTsV5Gr-10" vertex="1">
          <mxGeometry x="120" y="310" width="40" height="190" as="geometry" />
        </mxCell>
        <mxCell id="LXPPgQ5MOTWN8ZTsV5Gr-54" value="Client Tier" style="rounded=0;whiteSpace=wrap;html=1;strokeColor=#666666;strokeWidth=1;fillColor=#f5f5f5;align=center;verticalAlign=middle;fontColor=#333333;horizontal=0;fontStyle=1" parent="LXPPgQ5MOTWN8ZTsV5Gr-10" vertex="1">
          <mxGeometry x="120" y="250" width="40" height="40" as="geometry" />
        </mxCell>
        <mxCell id="LXPPgQ5MOTWN8ZTsV5Gr-56" value="Platform Tiers" style="rounded=0;whiteSpace=wrap;html=1;strokeColor=#666666;strokeWidth=1;fillColor=#f5f5f5;align=center;verticalAlign=middle;fontColor=#333333;horizontal=0;fontStyle=1" parent="LXPPgQ5MOTWN8ZTsV5Gr-10" vertex="1">
          <mxGeometry x="120" y="510" width="40" height="50" as="geometry" />
        </mxCell>
        <mxCell id="LXPPgQ5MOTWN8ZTsV5Gr-57" value="Cloud&lt;br&gt;Infrastructure" style="rounded=0;whiteSpace=wrap;html=1;strokeColor=#6c8ebf;strokeWidth=1;fillColor=#dae8fc;align=center;verticalAlign=middle;opacity=40;" parent="LXPPgQ5MOTWN8ZTsV5Gr-10" vertex="1">
          <mxGeometry x="240" y="510" width="80" height="50" as="geometry" />
        </mxCell>
        <mxCell id="LXPPgQ5MOTWN8ZTsV5Gr-58" value="Cloud Services" style="rounded=0;whiteSpace=wrap;html=1;strokeColor=#6c8ebf;strokeWidth=1;fillColor=#dae8fc;align=center;verticalAlign=middle;opacity=40;" parent="LXPPgQ5MOTWN8ZTsV5Gr-10" vertex="1">
          <mxGeometry x="170" y="510" width="60" height="50" as="geometry" />
        </mxCell>
        <mxCell id="LXPPgQ5MOTWN8ZTsV5Gr-59" value="Enterprise&lt;br&gt;Services" style="rounded=0;whiteSpace=wrap;html=1;strokeColor=#6c8ebf;strokeWidth=1;fillColor=#dae8fc;align=center;verticalAlign=middle;opacity=40;" parent="LXPPgQ5MOTWN8ZTsV5Gr-10" vertex="1">
          <mxGeometry x="330" y="510" width="70" height="50" as="geometry" />
        </mxCell>
        <mxCell id="LXPPgQ5MOTWN8ZTsV5Gr-60" value="Enterprise&lt;br&gt;Infrastructure" style="rounded=0;whiteSpace=wrap;html=1;strokeColor=#6c8ebf;strokeWidth=1;fillColor=#dae8fc;align=center;verticalAlign=middle;opacity=40;" parent="LXPPgQ5MOTWN8ZTsV5Gr-10" vertex="1">
          <mxGeometry x="410" y="510" width="80" height="50" as="geometry" />
        </mxCell>
        <mxCell id="LXPPgQ5MOTWN8ZTsV5Gr-61" value="External Messages are Mapped at the Boundaries of the Information System.&lt;br&gt;&lt;br&gt;At the top of the stack, this achieved within the Service Facade controllers to ensure that no deeper internal code handles external Messages.&lt;br&gt;&lt;br&gt;At the bottom of the stack, 3rd party service client assemblies typically return Messages appropriate to the remote service (eg: SMTP Messages), which need to be mapped to internal Entities before working and/or persisting them (as: system Notification entities, for example).&amp;nbsp;" style="shape=note;whiteSpace=wrap;html=1;size=14;verticalAlign=top;align=left;spacingTop=-6;rounded=0;strokeWidth=1;fillColor=none;" parent="LXPPgQ5MOTWN8ZTsV5Gr-10" vertex="1">
          <mxGeometry x="520" y="260" width="160" height="300" as="geometry" />
        </mxCell>
        <mxCell id="LXPPgQ5MOTWN8ZTsV5Gr-75" value="" style="shape=flexArrow;endArrow=classic;html=1;strokeWidth=1;fillColor=#dae8fc;strokeColor=#6c8ebf;" parent="LXPPgQ5MOTWN8ZTsV5Gr-10" edge="1">
          <mxGeometry width="50" height="50" relative="1" as="geometry">
            <mxPoint x="300" y="280" as="sourcePoint" />
            <mxPoint x="300" y="320" as="targetPoint" />
          </mxGeometry>
        </mxCell>
        <mxCell id="LXPPgQ5MOTWN8ZTsV5Gr-76" value="" style="shape=flexArrow;endArrow=classic;html=1;strokeWidth=1;fillColor=#dae8fc;strokeColor=#6c8ebf;" parent="LXPPgQ5MOTWN8ZTsV5Gr-10" edge="1">
          <mxGeometry width="50" height="50" relative="1" as="geometry">
            <mxPoint x="360" y="320" as="sourcePoint" />
            <mxPoint x="360" y="280" as="targetPoint" />
          </mxGeometry>
        </mxCell>
        <mxCell id="LXPPgQ5MOTWN8ZTsV5Gr-77" value="" style="shape=flexArrow;endArrow=classic;html=1;strokeWidth=1;fillColor=#d5e8d4;strokeColor=#82b366;" parent="LXPPgQ5MOTWN8ZTsV5Gr-10" edge="1">
          <mxGeometry width="50" height="50" relative="1" as="geometry">
            <mxPoint x="300" y="340" as="sourcePoint" />
            <mxPoint x="300" y="380" as="targetPoint" />
          </mxGeometry>
        </mxCell>
        <mxCell id="LXPPgQ5MOTWN8ZTsV5Gr-78" value="" style="shape=flexArrow;endArrow=classic;html=1;strokeWidth=1;fillColor=#d5e8d4;strokeColor=#82b366;" parent="LXPPgQ5MOTWN8ZTsV5Gr-10" edge="1">
          <mxGeometry width="50" height="50" relative="1" as="geometry">
            <mxPoint x="360" y="380" as="sourcePoint" />
            <mxPoint x="360" y="340" as="targetPoint" />
          </mxGeometry>
        </mxCell>
        <mxCell id="LXPPgQ5MOTWN8ZTsV5Gr-80" value="" style="shape=image;html=1;verticalAlign=top;verticalLabelPosition=bottom;labelBackgroundColor=#ffffff;imageAspect=0;aspect=fixed;image=https://cdn4.iconfinder.com/data/icons/basic-ui-2-line/32/paper-fold-map-chart-location-128.png;rounded=0;strokeColor=#000000;strokeWidth=1;fillColor=none;gradientColor=none;opacity=40;align=center;" parent="LXPPgQ5MOTWN8ZTsV5Gr-10" vertex="1">
          <mxGeometry x="322" y="328" width="20" height="20" as="geometry" />
        </mxCell>
        <mxCell id="LXPPgQ5MOTWN8ZTsV5Gr-31" value="Note" parent="LXPPgQ5MOTWN8ZTsV5Gr-0" />
        <mxCell id="LXPPgQ5MOTWN8ZTsV5Gr-33" value="Title/Diagram" style="" parent="LXPPgQ5MOTWN8ZTsV5Gr-0" />
        <mxCell id="LXPPgQ5MOTWN8ZTsV5Gr-34" value="&lt;font style=&quot;font-size: 12px&quot;&gt;Diagram:Information&amp;nbsp;Messages - Mapping @ the Service Facade&lt;/font&gt;" style="text;strokeColor=none;fillColor=none;html=1;fontSize=24;fontStyle=2;verticalAlign=middle;align=left;shadow=0;glass=0;comic=0;opacity=30;fontColor=#808080;" parent="LXPPgQ5MOTWN8ZTsV5Gr-33" vertex="1">
          <mxGeometry x="120" y="580" width="480" height="20" as="geometry" />
        </mxCell>
        <mxCell id="LXPPgQ5MOTWN8ZTsV5Gr-35" value="Title/Page" parent="LXPPgQ5MOTWN8ZTsV5Gr-0" visible="0" />
        <mxCell id="LXPPgQ5MOTWN8ZTsV5Gr-36" value="" style="group;fontSize=12;movable=0;resizable=0;rotatable=0;deletable=0;editable=0;connectable=0;" parent="LXPPgQ5MOTWN8ZTsV5Gr-35" vertex="1" connectable="0">
          <mxGeometry x="120" y="120" width="560" height="50" as="geometry" />
        </mxCell>
        <mxCell id="LXPPgQ5MOTWN8ZTsV5Gr-37" value="&lt;font style=&quot;font-size: 11px&quot;&gt;Base Logical Module - Information -&amp;nbsp;System Messages&lt;/font&gt;" style="text;strokeColor=none;fillColor=none;html=1;fontSize=24;fontStyle=1;verticalAlign=middle;align=left;shadow=0;glass=0;comic=0;opacity=30;fontColor=#808080;" parent="LXPPgQ5MOTWN8ZTsV5Gr-36" vertex="1">
          <mxGeometry width="485.3333333333333" height="40" as="geometry" />
        </mxCell>
        <mxCell id="LXPPgQ5MOTWN8ZTsV5Gr-38" value="" style="line;strokeWidth=2;html=1;shadow=0;glass=0;comic=0;fillColor=none;fontSize=10;fontColor=#CCCCCC;labelBackgroundColor=none;strokeColor=#CCCCCC;" parent="LXPPgQ5MOTWN8ZTsV5Gr-36" vertex="1">
          <mxGeometry y="35" width="560" height="10" as="geometry" />
        </mxCell>
        <UserObject label="" tooltip="ABOUT&#xa;&#xa;It&#39;s easy to forget to plan Notifications beyond something that needs doing at some point. &#xa;But they require far more attention. They are Views of the system, just like any Presentation layer View -- except that they are using an ancient technology protocol (more or less from the same era as the teletype, prior to faxes...) to get the Output View in front of the end user.&#xa;&#xa;&#xa;&#xa;Plan for their Attributes, Structure, Formatting, Sequence, Triggers and Delivery as carefully as one would any current HTML5 based Output View." id="LXPPgQ5MOTWN8ZTsV5Gr-39">
          <mxCell style="shape=image;html=1;verticalAlign=top;verticalLabelPosition=bottom;labelBackgroundColor=#ffffff;imageAspect=0;aspect=fixed;image=https://cdn1.iconfinder.com/data/icons/hawcons/32/699014-icon-28-information-128.png;shadow=0;dashed=0;fontFamily=Helvetica;fontSize=12;fontColor=#000000;align=center;strokeColor=#000000;fillColor=#505050;dashPattern=1 1;" parent="LXPPgQ5MOTWN8ZTsV5Gr-36" vertex="1">
            <mxGeometry x="540" y="10" width="20" height="20" as="geometry" />
          </mxCell>
        </UserObject>
        <mxCell id="LXPPgQ5MOTWN8ZTsV5Gr-40" value="About" parent="LXPPgQ5MOTWN8ZTsV5Gr-0" />
      </root>
    </mxGraphModel>
  </diagram>
  <diagram id="be2saf-9o-FCMHUItBSO" name="Messsages/Boundary Mapping">
    <mxGraphModel dx="1886" dy="818" grid="1" gridSize="10" guides="1" tooltips="1" connect="1" arrows="1" fold="1" page="1" pageScale="1" pageWidth="827" pageHeight="1169" math="0" shadow="0">
      <root>
        <mxCell id="nLjV2y1cGtuan8dE1y1S-0" />
        <mxCell id="4aXmvgm3kd68s_dhLm-R-0" value="Context/Legend" parent="nLjV2y1cGtuan8dE1y1S-0" />
        <mxCell id="4aXmvgm3kd68s_dhLm-R-1" value="" style="rounded=0;whiteSpace=wrap;html=1;fontSize=10;align=left;container=1;collapsible=0;fontColor=#B3B3B3;strokeColor=#B3B3B3;" parent="4aXmvgm3kd68s_dhLm-R-0" vertex="1">
          <mxGeometry x="480" y="170" width="240" height="50" as="geometry" />
        </mxCell>
        <mxCell id="4aXmvgm3kd68s_dhLm-R-2" value="" style="whiteSpace=wrap;html=1;aspect=fixed;fillColor=none;strokeColor=#82b366;fontSize=10;align=left;fontStyle=2;strokeWidth=2;" parent="4aXmvgm3kd68s_dhLm-R-1" vertex="1">
          <mxGeometry x="13.294460641399398" y="16.666666666666668" width="8.333333333333334" height="8.333333333333334" as="geometry" />
        </mxCell>
        <mxCell id="4aXmvgm3kd68s_dhLm-R-3" value="" style="whiteSpace=wrap;html=1;aspect=fixed;fillColor=none;strokeColor=#d6b656;fontSize=10;align=left;fontStyle=2;strokeWidth=2;" parent="4aXmvgm3kd68s_dhLm-R-1" vertex="1">
          <mxGeometry x="13.294460641399398" y="28" width="8.333333333333334" height="8.333333333333334" as="geometry" />
        </mxCell>
        <mxCell id="4aXmvgm3kd68s_dhLm-R-4" value="" style="whiteSpace=wrap;html=1;aspect=fixed;fillColor=none;strokeColor=#6c8ebf;fontSize=10;align=left;fontStyle=2;strokeWidth=2;" parent="4aXmvgm3kd68s_dhLm-R-1" vertex="1">
          <mxGeometry x="13.294460641399397" y="39.333333333333336" width="8.333333333333334" height="8.333333333333334" as="geometry" />
        </mxCell>
        <mxCell id="4aXmvgm3kd68s_dhLm-R-5" value="Internal, System (underlying optional Tenants)&amp;nbsp;" style="text;html=1;strokeColor=none;fillColor=none;align=left;verticalAlign=middle;whiteSpace=wrap;rounded=0;fontSize=10;fontStyle=2;fontColor=#B3B3B3;" parent="4aXmvgm3kd68s_dhLm-R-1" vertex="1">
          <mxGeometry x="26.5945189504373" y="16.666666666666668" width="213.40548104956264" height="8.333333333333334" as="geometry" />
        </mxCell>
        <mxCell id="4aXmvgm3kd68s_dhLm-R-6" value="Internal, (optionally) Tenanted" style="text;html=1;strokeColor=none;fillColor=none;align=left;verticalAlign=middle;whiteSpace=wrap;rounded=0;fontSize=10;fontStyle=2;fontColor=#B3B3B3;" parent="4aXmvgm3kd68s_dhLm-R-1" vertex="1">
          <mxGeometry x="26.59" y="30" width="213.41" height="6.33" as="geometry" />
        </mxCell>
        <mxCell id="4aXmvgm3kd68s_dhLm-R-7" value="External, Versioned Contracts/Msgs" style="text;html=1;strokeColor=none;fillColor=none;align=left;verticalAlign=middle;whiteSpace=wrap;rounded=0;fontSize=10;fontStyle=2;fontColor=#B3B3B3;" parent="4aXmvgm3kd68s_dhLm-R-1" vertex="1">
          <mxGeometry x="26.5945189504373" y="39.333333333333336" width="213.40548104956264" height="8.333333333333334" as="geometry" />
        </mxCell>
        <mxCell id="4aXmvgm3kd68s_dhLm-R-8" value="Legend" style="text;html=1;strokeColor=none;fillColor=none;align=center;verticalAlign=middle;whiteSpace=wrap;rounded=0;fontSize=10;fontStyle=5;fontColor=#B3B3B3;" parent="4aXmvgm3kd68s_dhLm-R-1" vertex="1">
          <mxGeometry x="26.588921282798815" width="159.53352769679296" height="16.666666666666668" as="geometry" />
        </mxCell>
        <mxCell id="nLjV2y1cGtuan8dE1y1S-1" value="Diagram" parent="nLjV2y1cGtuan8dE1y1S-0" />
        <mxCell id="nLjV2y1cGtuan8dE1y1S-2" value="&lt;font color=&quot;#990000&quot;&gt;&lt;i&gt;Internal&lt;br&gt;System &lt;br&gt;Entities&lt;/i&gt;&lt;/font&gt;" style="ellipse;whiteSpace=wrap;html=1;aspect=fixed;rounded=0;strokeColor=#000000;strokeWidth=1;fillColor=none;gradientColor=none;opacity=40;align=center;" parent="nLjV2y1cGtuan8dE1y1S-1" vertex="1">
          <mxGeometry x="280" y="280" width="160" height="160" as="geometry" />
        </mxCell>
        <mxCell id="nLjV2y1cGtuan8dE1y1S-4" value="" style="html=1;shadow=0;dashed=0;align=center;verticalAlign=middle;shape=mxgraph.arrows2.jumpInArrow;dy=15;dx=38;arrowHead=55;rounded=0;strokeColor=#82b366;strokeWidth=1;fillColor=#d5e8d4;opacity=80;" parent="nLjV2y1cGtuan8dE1y1S-1" vertex="1">
          <mxGeometry x="300" y="290" width="100" height="100" as="geometry" />
        </mxCell>
        <mxCell id="nLjV2y1cGtuan8dE1y1S-5" value="" style="html=1;shadow=0;dashed=0;align=center;verticalAlign=middle;shape=mxgraph.arrows2.jumpInArrow;dy=15;dx=38;arrowHead=55;rounded=0;strokeColor=#82b366;strokeWidth=1;fillColor=#d5e8d4;rotation=-180;opacity=80;" parent="nLjV2y1cGtuan8dE1y1S-1" vertex="1">
          <mxGeometry x="320" y="330" width="100" height="100" as="geometry" />
        </mxCell>
        <mxCell id="6Sner1lP1AfExNyeFIkr-0" value="" style="shape=flexArrow;endArrow=classic;html=1;strokeWidth=1;fillColor=#dae8fc;strokeColor=#6c8ebf;" parent="nLjV2y1cGtuan8dE1y1S-1" edge="1">
          <mxGeometry width="50" height="50" relative="1" as="geometry">
            <mxPoint x="380" y="270" as="sourcePoint" />
            <mxPoint x="380" y="230" as="targetPoint" />
          </mxGeometry>
        </mxCell>
        <mxCell id="dMOpEQdTBQheZbRmMj4s-0" value="" style="shape=flexArrow;endArrow=classic;html=1;strokeWidth=1;fillColor=#dae8fc;strokeColor=#6c8ebf;" parent="nLjV2y1cGtuan8dE1y1S-1" edge="1">
          <mxGeometry width="50" height="50" relative="1" as="geometry">
            <mxPoint x="340" y="230" as="sourcePoint" />
            <mxPoint x="340" y="270" as="targetPoint" />
          </mxGeometry>
        </mxCell>
        <mxCell id="dMOpEQdTBQheZbRmMj4s-8" value="" style="html=1;shadow=0;dashed=0;align=center;verticalAlign=middle;shape=mxgraph.arrows2.arrow;dy=0.6;dx=19;flipH=1;notch=0;rounded=0;strokeColor=#6c8ebf;strokeWidth=1;fillColor=#dae8fc;" parent="nLjV2y1cGtuan8dE1y1S-1" vertex="1">
          <mxGeometry x="450" y="365" width="40" height="30" as="geometry" />
        </mxCell>
        <mxCell id="dMOpEQdTBQheZbRmMj4s-9" value="" style="html=1;shadow=0;dashed=0;align=center;verticalAlign=middle;shape=mxgraph.arrows2.arrow;dy=0.6;dx=19;flipH=1;notch=0;rounded=0;strokeColor=#6c8ebf;strokeWidth=1;fillColor=#dae8fc;rotation=-180;" parent="nLjV2y1cGtuan8dE1y1S-1" vertex="1">
          <mxGeometry x="450" y="325" width="40" height="30" as="geometry" />
        </mxCell>
        <mxCell id="dMOpEQdTBQheZbRmMj4s-10" value="" style="html=1;shadow=0;dashed=0;align=center;verticalAlign=middle;shape=mxgraph.arrows2.arrow;dy=0.6;dx=19;flipH=1;notch=0;rounded=0;strokeColor=#6c8ebf;strokeWidth=1;fillColor=#dae8fc;" parent="nLjV2y1cGtuan8dE1y1S-1" vertex="1">
          <mxGeometry x="230" y="365" width="40" height="30" as="geometry" />
        </mxCell>
        <mxCell id="dMOpEQdTBQheZbRmMj4s-11" value="" style="html=1;shadow=0;dashed=0;align=center;verticalAlign=middle;shape=mxgraph.arrows2.arrow;dy=0.6;dx=19;flipH=1;notch=0;rounded=0;strokeColor=#6c8ebf;strokeWidth=1;fillColor=#dae8fc;rotation=-180;" parent="nLjV2y1cGtuan8dE1y1S-1" vertex="1">
          <mxGeometry x="230" y="325" width="40" height="30" as="geometry" />
        </mxCell>
        <mxCell id="dMOpEQdTBQheZbRmMj4s-12" value="" style="shape=flexArrow;endArrow=classic;html=1;strokeWidth=1;fillColor=#dae8fc;strokeColor=#6c8ebf;" parent="nLjV2y1cGtuan8dE1y1S-1" edge="1">
          <mxGeometry width="50" height="50" relative="1" as="geometry">
            <mxPoint x="380" y="490" as="sourcePoint" />
            <mxPoint x="380" y="450" as="targetPoint" />
          </mxGeometry>
        </mxCell>
        <mxCell id="dMOpEQdTBQheZbRmMj4s-13" value="" style="shape=flexArrow;endArrow=classic;html=1;strokeWidth=1;fillColor=#dae8fc;strokeColor=#6c8ebf;" parent="nLjV2y1cGtuan8dE1y1S-1" edge="1">
          <mxGeometry width="50" height="50" relative="1" as="geometry">
            <mxPoint x="340" y="450" as="sourcePoint" />
            <mxPoint x="340" y="490" as="targetPoint" />
          </mxGeometry>
        </mxCell>
        <mxCell id="dMOpEQdTBQheZbRmMj4s-14" value="3rd Party API&amp;nbsp; Clients" style="text;html=1;strokeColor=none;fillColor=none;align=center;verticalAlign=middle;whiteSpace=wrap;rounded=0;" parent="nLjV2y1cGtuan8dE1y1S-1" vertex="1">
          <mxGeometry x="160" y="350" width="40" height="20" as="geometry" />
        </mxCell>
        <mxCell id="dMOpEQdTBQheZbRmMj4s-15" value="User Interface" style="text;html=1;strokeColor=none;fillColor=none;align=center;verticalAlign=middle;whiteSpace=wrap;rounded=0;" parent="nLjV2y1cGtuan8dE1y1S-1" vertex="1">
          <mxGeometry x="340" y="180" width="40" height="20" as="geometry" />
        </mxCell>
        <mxCell id="dMOpEQdTBQheZbRmMj4s-16" value="3rd Party Dependencies (IdP, etc.)" style="text;html=1;strokeColor=none;fillColor=none;align=center;verticalAlign=middle;whiteSpace=wrap;rounded=0;" parent="nLjV2y1cGtuan8dE1y1S-1" vertex="1">
          <mxGeometry x="520" y="350" width="40" height="20" as="geometry" />
        </mxCell>
        <mxCell id="dMOpEQdTBQheZbRmMj4s-17" value="Infrastructure&lt;br&gt;Service Dependencies" style="text;html=1;strokeColor=none;fillColor=none;align=center;verticalAlign=middle;whiteSpace=wrap;rounded=0;" parent="nLjV2y1cGtuan8dE1y1S-1" vertex="1">
          <mxGeometry x="340" y="510" width="40" height="20" as="geometry" />
        </mxCell>
        <mxCell id="dMOpEQdTBQheZbRmMj4s-18" value="&lt;font color=&quot;#990000&quot;&gt;External&amp;nbsp;&lt;br&gt;Messages&lt;/font&gt;" style="text;html=1;strokeColor=none;fillColor=none;align=center;verticalAlign=middle;whiteSpace=wrap;rounded=0;opacity=80;fontStyle=2" parent="nLjV2y1cGtuan8dE1y1S-1" vertex="1">
          <mxGeometry x="450" y="260" width="40" height="20" as="geometry" />
        </mxCell>
        <mxCell id="mx6nNHf31XT_A1eFadEg-0" value="Title/Diagram" parent="nLjV2y1cGtuan8dE1y1S-0" />
        <mxCell id="mx6nNHf31XT_A1eFadEg-1" value="&lt;font style=&quot;font-size: 12px&quot;&gt;Diagram:Information&amp;nbsp;Messages - Mapping @ Boundary&lt;/font&gt;" style="text;strokeColor=none;fillColor=none;html=1;fontSize=24;fontStyle=2;verticalAlign=middle;align=left;shadow=0;glass=0;comic=0;opacity=30;fontColor=#808080;" parent="mx6nNHf31XT_A1eFadEg-0" vertex="1">
          <mxGeometry x="120" y="580" width="480" height="20" as="geometry" />
        </mxCell>
      </root>
    </mxGraphModel>
  </diagram>
  <diagram id="se_fHfC77gf5kuLxupVd" name="Messages/Base System Logical Module/Messages">
    <mxGraphModel dx="1130" dy="406" grid="1" gridSize="10" guides="1" tooltips="1" connect="1" arrows="1" fold="1" page="1" pageScale="1" pageWidth="827" pageHeight="1169" math="0" shadow="0">
      <root>
        <mxCell id="G9qh6bkMPozk5LiaP4H1-0" />
        <mxCell id="2f1KGMoCjBIDJc24Axx9-0" value="Context/Legend" parent="G9qh6bkMPozk5LiaP4H1-0" />
        <mxCell id="2f1KGMoCjBIDJc24Axx9-9" value="" style="rounded=0;whiteSpace=wrap;html=1;fontSize=10;align=left;container=1;collapsible=0;fontColor=#B3B3B3;strokeColor=#B3B3B3;" parent="2f1KGMoCjBIDJc24Axx9-0" vertex="1">
          <mxGeometry x="440" y="180" width="240" height="50" as="geometry" />
        </mxCell>
        <mxCell id="2f1KGMoCjBIDJc24Axx9-10" value="" style="whiteSpace=wrap;html=1;aspect=fixed;fillColor=none;strokeColor=#82b366;fontSize=10;align=left;fontStyle=2;strokeWidth=2;" parent="2f1KGMoCjBIDJc24Axx9-9" vertex="1">
          <mxGeometry x="13.294460641399398" y="16.666666666666668" width="8.333333333333334" height="8.333333333333334" as="geometry" />
        </mxCell>
        <mxCell id="2f1KGMoCjBIDJc24Axx9-11" value="" style="whiteSpace=wrap;html=1;aspect=fixed;fillColor=none;strokeColor=#d6b656;fontSize=10;align=left;fontStyle=2;strokeWidth=2;" parent="2f1KGMoCjBIDJc24Axx9-9" vertex="1">
          <mxGeometry x="13.294460641399398" y="28" width="8.333333333333334" height="8.333333333333334" as="geometry" />
        </mxCell>
        <mxCell id="2f1KGMoCjBIDJc24Axx9-12" value="" style="whiteSpace=wrap;html=1;aspect=fixed;fillColor=none;strokeColor=#6c8ebf;fontSize=10;align=left;fontStyle=2;strokeWidth=2;" parent="2f1KGMoCjBIDJc24Axx9-9" vertex="1">
          <mxGeometry x="13.294460641399398" y="39.333333333333336" width="8.333333333333334" height="8.333333333333334" as="geometry" />
        </mxCell>
        <mxCell id="2f1KGMoCjBIDJc24Axx9-13" value="Internal, System (underlying optional Tenants)&amp;nbsp;" style="text;html=1;strokeColor=none;fillColor=none;align=left;verticalAlign=middle;whiteSpace=wrap;rounded=0;fontSize=10;fontStyle=2;fontColor=#B3B3B3;" parent="2f1KGMoCjBIDJc24Axx9-9" vertex="1">
          <mxGeometry x="26.5945189504373" y="16.666666666666668" width="213.40548104956264" height="8.333333333333334" as="geometry" />
        </mxCell>
        <mxCell id="2f1KGMoCjBIDJc24Axx9-14" value="Internal, (optionally) Tenanted" style="text;html=1;strokeColor=none;fillColor=none;align=left;verticalAlign=middle;whiteSpace=wrap;rounded=0;fontSize=10;fontStyle=2;fontColor=#B3B3B3;" parent="2f1KGMoCjBIDJc24Axx9-9" vertex="1">
          <mxGeometry x="26.59" y="30" width="213.41" height="6.33" as="geometry" />
        </mxCell>
        <mxCell id="2f1KGMoCjBIDJc24Axx9-15" value="External, Versioned Contracts/Msgs" style="text;html=1;strokeColor=none;fillColor=none;align=left;verticalAlign=middle;whiteSpace=wrap;rounded=0;fontSize=10;fontStyle=2;fontColor=#B3B3B3;" parent="2f1KGMoCjBIDJc24Axx9-9" vertex="1">
          <mxGeometry x="26.5945189504373" y="39.333333333333336" width="213.40548104956264" height="8.333333333333334" as="geometry" />
        </mxCell>
        <mxCell id="2f1KGMoCjBIDJc24Axx9-16" value="Legend" style="text;html=1;strokeColor=none;fillColor=none;align=center;verticalAlign=middle;whiteSpace=wrap;rounded=0;fontSize=10;fontStyle=5;fontColor=#B3B3B3;" parent="2f1KGMoCjBIDJc24Axx9-9" vertex="1">
          <mxGeometry x="26.588921282798815" width="159.53352769679296" height="16.666666666666668" as="geometry" />
        </mxCell>
        <mxCell id="vOTk4Zx6DeMy-Cd0G5HF-4" value="Diagram/ERD" parent="G9qh6bkMPozk5LiaP4H1-0" />
        <mxCell id="lPS0JGROJyokagfh3ar3-37" value="Login" style="rounded=1;whiteSpace=wrap;html=1;strokeColor=#666666;strokeWidth=1;fillColor=none;dashed=1;verticalAlign=top;align=left;spacingLeft=4;spacing=0;spacingTop=-5;fontColor=#666666;arcSize=16;absoluteArcSize=1;collapsible=0;container=1;recursiveResize=0;fontSize=12;labelBackgroundColor=none;" parent="vOTk4Zx6DeMy-Cd0G5HF-4" vertex="1">
          <mxGeometry x="120" y="320" width="560" height="70" as="geometry" />
        </mxCell>
        <mxCell id="lPS0JGROJyokagfh3ar3-38" value="Login&lt;br style=&quot;font-size: 12px;&quot;&gt;Added" style="html=1;outlineConnect=0;whiteSpace=wrap;fillColor=none;shape=mxgraph.archimate3.businessObject;overflow=fill;fontFamily=Helvetica;fontSize=12;fontColor=#000000;align=center;strokeColor=#6c8ebf;strokeWidth=3;" parent="lPS0JGROJyokagfh3ar3-37" vertex="1">
          <mxGeometry x="20" y="20" width="80" height="40" as="geometry" />
        </mxCell>
        <mxCell id="lPS0JGROJyokagfh3ar3-39" value="Login&lt;br style=&quot;font-size: 12px;&quot;&gt;Failed" style="html=1;outlineConnect=0;whiteSpace=wrap;fillColor=none;shape=mxgraph.archimate3.businessObject;overflow=fill;fontFamily=Helvetica;fontSize=12;fontColor=#000000;align=center;strokeColor=#6c8ebf;strokeWidth=3;" parent="lPS0JGROJyokagfh3ar3-37" vertex="1">
          <mxGeometry x="110" y="20" width="80" height="40" as="geometry" />
        </mxCell>
        <mxCell id="lPS0JGROJyokagfh3ar3-40" value="Login &lt;br style=&quot;font-size: 12px;&quot;&gt;Successful" style="html=1;outlineConnect=0;whiteSpace=wrap;fillColor=none;shape=mxgraph.archimate3.businessObject;overflow=fill;fontFamily=Helvetica;fontSize=12;fontColor=#000000;align=center;strokeColor=#6c8ebf;strokeWidth=3;" parent="lPS0JGROJyokagfh3ar3-37" vertex="1">
          <mxGeometry x="200" y="20" width="80" height="40" as="geometry" />
        </mxCell>
        <mxCell id="lPS0JGROJyokagfh3ar3-41" value="Login&lt;br style=&quot;font-size: 12px;&quot;&gt;Removed" style="html=1;outlineConnect=0;whiteSpace=wrap;fillColor=none;shape=mxgraph.archimate3.businessObject;overflow=fill;fontFamily=Helvetica;fontSize=12;fontColor=#000000;align=center;strokeColor=#6c8ebf;strokeWidth=3;" parent="lPS0JGROJyokagfh3ar3-37" vertex="1">
          <mxGeometry x="290" y="20" width="80" height="40" as="geometry" />
        </mxCell>
        <mxCell id="lPS0JGROJyokagfh3ar3-42" value="Tenant &lt;font style=&quot;font-size: 10px&quot;&gt;(&lt;i&gt;optional - only used if system is designed for Tenant isolation.)&lt;/i&gt;&lt;/font&gt;" style="rounded=1;whiteSpace=wrap;html=1;strokeColor=#666666;strokeWidth=1;fillColor=none;dashed=1;verticalAlign=top;align=left;spacingLeft=4;spacing=0;spacingTop=-5;fontColor=#666666;arcSize=16;absoluteArcSize=1;collapsible=0;container=1;recursiveResize=0;fontSize=12;labelBackgroundColor=none;" parent="vOTk4Zx6DeMy-Cd0G5HF-4" vertex="1">
          <mxGeometry x="120" y="400" width="560" height="70" as="geometry" />
        </mxCell>
        <mxCell id="lPS0JGROJyokagfh3ar3-43" value="&lt;span style=&quot;color: rgb(128 , 128 , 128) ; text-align: left ; font-size: 12px&quot;&gt;Tenant&lt;/span&gt;&lt;br style=&quot;font-size: 12px&quot;&gt;Created" style="html=1;outlineConnect=0;whiteSpace=wrap;fillColor=none;shape=mxgraph.archimate3.businessObject;overflow=fill;fontFamily=Helvetica;fontSize=12;fontColor=#000000;align=center;strokeColor=#6c8ebf;strokeWidth=3;" parent="lPS0JGROJyokagfh3ar3-42" vertex="1">
          <mxGeometry x="20" y="20" width="80" height="40" as="geometry" />
        </mxCell>
        <mxCell id="lPS0JGROJyokagfh3ar3-44" value="&lt;span style=&quot;color: rgb(128 , 128 , 128) ; text-align: left ; font-size: 12px&quot;&gt;Tenant&amp;nbsp;&lt;/span&gt;&lt;br style=&quot;font-size: 12px&quot;&gt;Disabled" style="html=1;outlineConnect=0;whiteSpace=wrap;fillColor=none;shape=mxgraph.archimate3.businessObject;overflow=fill;fontFamily=Helvetica;fontSize=12;fontColor=#000000;align=center;strokeColor=#6c8ebf;strokeWidth=3;" parent="lPS0JGROJyokagfh3ar3-42" vertex="1">
          <mxGeometry x="110" y="20" width="80" height="40" as="geometry" />
        </mxCell>
        <mxCell id="lPS0JGROJyokagfh3ar3-45" value="&lt;span style=&quot;color: rgb(128 , 128 , 128) ; text-align: left ; font-size: 12px&quot;&gt;Tenant&amp;nbsp;&lt;/span&gt;&lt;br style=&quot;font-size: 12px&quot;&gt;ReEnabled" style="html=1;outlineConnect=0;whiteSpace=wrap;fillColor=none;shape=mxgraph.archimate3.businessObject;overflow=fill;fontFamily=Helvetica;fontSize=12;fontColor=#000000;align=center;strokeColor=#6c8ebf;strokeWidth=3;" parent="lPS0JGROJyokagfh3ar3-42" vertex="1">
          <mxGeometry x="200" y="20" width="80" height="40" as="geometry" />
        </mxCell>
        <mxCell id="lPS0JGROJyokagfh3ar3-46" value="&lt;span style=&quot;color: rgb(128 , 128 , 128) ; text-align: left ; font-size: 12px&quot;&gt;Tenant&amp;nbsp;&lt;/span&gt;&lt;br style=&quot;font-size: 12px&quot;&gt;Deleted (logical)" style="html=1;outlineConnect=0;whiteSpace=wrap;fillColor=none;shape=mxgraph.archimate3.businessObject;overflow=fill;fontFamily=Helvetica;fontSize=12;fontColor=#000000;align=center;strokeColor=#6c8ebf;strokeWidth=3;" parent="lPS0JGROJyokagfh3ar3-42" vertex="1">
          <mxGeometry x="290" y="20" width="80" height="40" as="geometry" />
        </mxCell>
        <mxCell id="lPS0JGROJyokagfh3ar3-47" value="&lt;span style=&quot;color: rgb(128 , 128 , 128) ; text-align: left ; font-size: 12px&quot;&gt;Tenant&amp;nbsp;&lt;/span&gt;&lt;br style=&quot;font-size: 12px&quot;&gt;Recovered" style="html=1;outlineConnect=0;whiteSpace=wrap;fillColor=none;shape=mxgraph.archimate3.businessObject;overflow=fill;fontFamily=Helvetica;fontSize=12;fontColor=#000000;align=center;strokeColor=#6c8ebf;strokeWidth=3;" parent="lPS0JGROJyokagfh3ar3-42" vertex="1">
          <mxGeometry x="380" y="20" width="80" height="40" as="geometry" />
        </mxCell>
        <mxCell id="lPS0JGROJyokagfh3ar3-48" value="Organisation Member Group" style="rounded=1;whiteSpace=wrap;html=1;strokeColor=#666666;strokeWidth=1;fillColor=none;dashed=1;verticalAlign=top;align=left;spacingLeft=4;spacing=0;spacingTop=-5;fontColor=#666666;arcSize=16;absoluteArcSize=1;collapsible=0;container=1;recursiveResize=0;fontSize=12;labelBackgroundColor=none;" parent="vOTk4Zx6DeMy-Cd0G5HF-4" vertex="1">
          <mxGeometry x="120" y="560" width="560" height="70" as="geometry" />
        </mxCell>
        <mxCell id="lPS0JGROJyokagfh3ar3-49" value="&lt;span style=&quot;color: rgb(128 , 128 , 128) ; text-align: left ; font-size: 12px&quot;&gt;OrgGroup&amp;nbsp;&lt;/span&gt;&lt;br style=&quot;font-size: 12px&quot;&gt;Created" style="html=1;outlineConnect=0;whiteSpace=wrap;fillColor=none;shape=mxgraph.archimate3.businessObject;overflow=fill;fontFamily=Helvetica;fontSize=12;fontColor=#000000;align=center;strokeColor=#6c8ebf;strokeWidth=3;" parent="lPS0JGROJyokagfh3ar3-48" vertex="1">
          <mxGeometry x="20" y="20" width="80" height="40" as="geometry" />
        </mxCell>
        <mxCell id="lPS0JGROJyokagfh3ar3-50" value="&lt;span style=&quot;color: rgb(128 , 128 , 128) ; text-align: left&quot;&gt;OrgGroup&lt;/span&gt;&lt;br style=&quot;font-size: 12px&quot;&gt;Disabled" style="html=1;outlineConnect=0;whiteSpace=wrap;fillColor=none;shape=mxgraph.archimate3.businessObject;overflow=fill;fontFamily=Helvetica;fontSize=12;fontColor=#000000;align=center;strokeColor=#6c8ebf;strokeWidth=3;" parent="lPS0JGROJyokagfh3ar3-48" vertex="1">
          <mxGeometry x="110" y="20" width="80" height="40" as="geometry" />
        </mxCell>
        <mxCell id="lPS0JGROJyokagfh3ar3-51" value="&lt;span style=&quot;color: rgb(128 , 128 , 128) ; text-align: left&quot;&gt;OrgGroup&lt;/span&gt;&lt;br style=&quot;font-size: 12px&quot;&gt;ReEnabled" style="html=1;outlineConnect=0;whiteSpace=wrap;fillColor=none;shape=mxgraph.archimate3.businessObject;overflow=fill;fontFamily=Helvetica;fontSize=12;fontColor=#000000;align=center;strokeColor=#6c8ebf;strokeWidth=3;" parent="lPS0JGROJyokagfh3ar3-48" vertex="1">
          <mxGeometry x="200" y="20" width="80" height="40" as="geometry" />
        </mxCell>
        <mxCell id="lPS0JGROJyokagfh3ar3-52" value="&lt;font style=&quot;font-size: 10px&quot;&gt;&lt;span style=&quot;color: rgb(128 , 128 , 128) ; font-size: 12px ; text-align: left&quot;&gt;OrgGroup&lt;/span&gt;&lt;br&gt;Deleted (logical)&lt;/font&gt;" style="html=1;outlineConnect=0;whiteSpace=wrap;fillColor=none;shape=mxgraph.archimate3.businessObject;overflow=fill;fontFamily=Helvetica;fontSize=12;fontColor=#000000;align=center;strokeColor=#6c8ebf;strokeWidth=3;" parent="lPS0JGROJyokagfh3ar3-48" vertex="1">
          <mxGeometry x="290" y="20" width="80" height="40" as="geometry" />
        </mxCell>
        <mxCell id="lPS0JGROJyokagfh3ar3-53" value="&lt;span style=&quot;color: rgb(128 , 128 , 128) ; text-align: left&quot;&gt;OrgGroup&lt;/span&gt;&lt;br style=&quot;font-size: 12px&quot;&gt;Recovered" style="html=1;outlineConnect=0;whiteSpace=wrap;fillColor=none;shape=mxgraph.archimate3.businessObject;overflow=fill;fontFamily=Helvetica;fontSize=12;fontColor=#000000;align=center;strokeColor=#6c8ebf;strokeWidth=3;" parent="lPS0JGROJyokagfh3ar3-48" vertex="1">
          <mxGeometry x="380" y="20" width="80" height="40" as="geometry" />
        </mxCell>
        <mxCell id="lPS0JGROJyokagfh3ar3-54" value="Organisation Group Member" style="rounded=1;whiteSpace=wrap;html=1;strokeColor=#666666;strokeWidth=1;fillColor=none;dashed=1;verticalAlign=top;align=left;spacingLeft=4;spacing=0;spacingTop=-5;fontColor=#666666;arcSize=16;absoluteArcSize=1;collapsible=0;container=1;recursiveResize=0;fontSize=12;labelBackgroundColor=none;" parent="vOTk4Zx6DeMy-Cd0G5HF-4" vertex="1">
          <mxGeometry x="120" y="640" width="560" height="70" as="geometry" />
        </mxCell>
        <mxCell id="lPS0JGROJyokagfh3ar3-55" value="&lt;span style=&quot;color: rgb(128 , 128 , 128) ; text-align: left&quot;&gt;OrgGroup&lt;br&gt;Member&lt;/span&gt;&lt;br&gt;Added/Welcome" style="html=1;outlineConnect=0;whiteSpace=wrap;fillColor=none;shape=mxgraph.archimate3.businessObject;overflow=fill;fontFamily=Helvetica;fontSize=12;fontColor=#000000;align=center;strokeColor=#6c8ebf;strokeWidth=3;" parent="lPS0JGROJyokagfh3ar3-54" vertex="1">
          <mxGeometry x="110" y="20" width="80" height="40" as="geometry" />
        </mxCell>
        <mxCell id="lPS0JGROJyokagfh3ar3-56" value="&lt;span style=&quot;color: rgb(128 , 128 , 128) ; text-align: left&quot;&gt;OrgGroup&lt;br&gt;Member&lt;/span&gt;&lt;br&gt;Disabling" style="html=1;outlineConnect=0;whiteSpace=wrap;fillColor=none;shape=mxgraph.archimate3.businessObject;overflow=fill;fontFamily=Helvetica;fontSize=12;fontColor=#000000;align=center;strokeColor=#6c8ebf;strokeWidth=3;" parent="lPS0JGROJyokagfh3ar3-54" vertex="1">
          <mxGeometry x="200" y="20" width="80" height="40" as="geometry" />
        </mxCell>
        <mxCell id="lPS0JGROJyokagfh3ar3-57" value="&lt;span style=&quot;color: rgb(128 , 128 , 128) ; text-align: left&quot;&gt;OrgGroup&lt;br&gt;Member&lt;/span&gt;&lt;br&gt;Disabled" style="html=1;outlineConnect=0;whiteSpace=wrap;fillColor=none;shape=mxgraph.archimate3.businessObject;overflow=fill;fontFamily=Helvetica;fontSize=12;fontColor=#000000;align=center;strokeColor=#6c8ebf;strokeWidth=3;" parent="lPS0JGROJyokagfh3ar3-54" vertex="1">
          <mxGeometry x="290" y="20" width="80" height="40" as="geometry" />
        </mxCell>
        <mxCell id="lPS0JGROJyokagfh3ar3-58" value="&lt;span style=&quot;color: rgb(128 , 128 , 128) ; text-align: left&quot;&gt;OrgGroup&lt;br&gt;Member&lt;/span&gt;&lt;br&gt;Reenabled" style="html=1;outlineConnect=0;whiteSpace=wrap;fillColor=none;shape=mxgraph.archimate3.businessObject;overflow=fill;fontFamily=Helvetica;fontSize=12;fontColor=#000000;align=center;strokeColor=#6c8ebf;strokeWidth=3;" parent="lPS0JGROJyokagfh3ar3-54" vertex="1">
          <mxGeometry x="380" y="20" width="80" height="40" as="geometry" />
        </mxCell>
        <mxCell id="lPS0JGROJyokagfh3ar3-59" value="&lt;span style=&quot;color: rgb(128 , 128 , 128) ; text-align: left&quot;&gt;OrgGroup&lt;br&gt;Member&lt;/span&gt;&lt;br&gt;Removed" style="html=1;outlineConnect=0;whiteSpace=wrap;fillColor=none;shape=mxgraph.archimate3.businessObject;overflow=fill;fontFamily=Helvetica;fontSize=12;fontColor=#000000;align=center;strokeColor=#6c8ebf;strokeWidth=3;" parent="lPS0JGROJyokagfh3ar3-54" vertex="1">
          <mxGeometry x="470" y="20" width="80" height="40" as="geometry" />
        </mxCell>
        <mxCell id="lPS0JGROJyokagfh3ar3-60" value="&lt;span style=&quot;color: rgb(128 , 128 , 128) ; text-align: left&quot;&gt;OrgGroup&lt;br&gt;Member&lt;/span&gt;&lt;br style=&quot;font-size: 12px&quot;&gt;Added" style="html=1;outlineConnect=0;whiteSpace=wrap;fillColor=none;shape=mxgraph.archimate3.businessObject;overflow=fill;fontFamily=Helvetica;fontSize=12;fontColor=#000000;align=center;strokeColor=#6c8ebf;strokeWidth=3;" parent="lPS0JGROJyokagfh3ar3-54" vertex="1">
          <mxGeometry x="20" y="20" width="80" height="40" as="geometry" />
        </mxCell>
        <mxCell id="MvK9V9ObJQ_lCPHTadrP-1" value="Module" style="rounded=1;whiteSpace=wrap;html=1;strokeColor=#666666;strokeWidth=1;fillColor=none;dashed=1;verticalAlign=top;align=left;spacingLeft=4;spacing=0;spacingTop=-5;fontColor=#666666;arcSize=16;absoluteArcSize=1;collapsible=0;container=1;recursiveResize=0;fontSize=12;labelBackgroundColor=none;" parent="vOTk4Zx6DeMy-Cd0G5HF-4" vertex="1">
          <mxGeometry x="120" y="240" width="560" height="70" as="geometry" />
        </mxCell>
        <mxCell id="MvK9V9ObJQ_lCPHTadrP-2" value="Module&lt;br style=&quot;font-size: 12px;&quot;&gt;Added" style="html=1;outlineConnect=0;whiteSpace=wrap;fillColor=none;shape=mxgraph.archimate3.businessObject;overflow=fill;fontFamily=Helvetica;fontSize=12;fontColor=#000000;align=center;strokeColor=#6c8ebf;strokeWidth=3;" parent="MvK9V9ObJQ_lCPHTadrP-1" vertex="1">
          <mxGeometry x="20" y="20" width="80" height="40" as="geometry" />
        </mxCell>
        <mxCell id="MvK9V9ObJQ_lCPHTadrP-3" value="Module&lt;br style=&quot;font-size: 12px;&quot;&gt;Disabling" style="html=1;outlineConnect=0;whiteSpace=wrap;fillColor=none;shape=mxgraph.archimate3.businessObject;overflow=fill;fontFamily=Helvetica;fontSize=12;fontColor=#000000;align=center;strokeColor=#6c8ebf;strokeWidth=3;" parent="MvK9V9ObJQ_lCPHTadrP-1" vertex="1">
          <mxGeometry x="110" y="20" width="80" height="40" as="geometry" />
        </mxCell>
        <mxCell id="MvK9V9ObJQ_lCPHTadrP-4" value="Module&lt;br style=&quot;font-size: 12px;&quot;&gt;Disabled" style="html=1;outlineConnect=0;whiteSpace=wrap;fillColor=none;shape=mxgraph.archimate3.businessObject;overflow=fill;fontFamily=Helvetica;fontSize=12;fontColor=#000000;align=center;strokeColor=#6c8ebf;strokeWidth=3;" parent="MvK9V9ObJQ_lCPHTadrP-1" vertex="1">
          <mxGeometry x="200" y="20" width="80" height="40" as="geometry" />
        </mxCell>
        <mxCell id="MvK9V9ObJQ_lCPHTadrP-5" value="Module&lt;br style=&quot;font-size: 12px&quot;&gt;Re-Enabled" style="html=1;outlineConnect=0;whiteSpace=wrap;fillColor=none;shape=mxgraph.archimate3.businessObject;overflow=fill;fontFamily=Helvetica;fontSize=12;fontColor=#000000;align=center;strokeColor=#6c8ebf;strokeWidth=3;" parent="MvK9V9ObJQ_lCPHTadrP-1" vertex="1">
          <mxGeometry x="290" y="20" width="80" height="40" as="geometry" />
        </mxCell>
        <mxCell id="jJI1wXPYuqSpDlA49wdr-0" value="Organisation" style="rounded=1;whiteSpace=wrap;html=1;strokeColor=#666666;strokeWidth=1;fillColor=none;dashed=1;verticalAlign=top;align=left;spacingLeft=4;spacing=0;spacingTop=-5;fontColor=#666666;arcSize=16;absoluteArcSize=1;collapsible=0;container=1;recursiveResize=0;fontSize=12;labelBackgroundColor=none;" parent="vOTk4Zx6DeMy-Cd0G5HF-4" vertex="1">
          <mxGeometry x="120" y="480" width="560" height="70" as="geometry" />
        </mxCell>
        <mxCell id="jJI1wXPYuqSpDlA49wdr-1" value="&lt;span style=&quot;color: rgb(128, 128, 128); text-align: left; font-size: 12px;&quot;&gt;Organisation&amp;nbsp;&lt;/span&gt;&lt;br style=&quot;font-size: 12px;&quot;&gt;Created" style="html=1;outlineConnect=0;whiteSpace=wrap;fillColor=none;shape=mxgraph.archimate3.businessObject;overflow=fill;fontFamily=Helvetica;fontSize=12;fontColor=#000000;align=center;strokeColor=#6c8ebf;strokeWidth=3;" parent="jJI1wXPYuqSpDlA49wdr-0" vertex="1">
          <mxGeometry x="20" y="20" width="80" height="40" as="geometry" />
        </mxCell>
        <mxCell id="jJI1wXPYuqSpDlA49wdr-2" value="&lt;span style=&quot;color: rgb(128, 128, 128); text-align: left; font-size: 12px;&quot;&gt;Organisation&amp;nbsp;&lt;/span&gt;&lt;br style=&quot;font-size: 12px;&quot;&gt;Disabled" style="html=1;outlineConnect=0;whiteSpace=wrap;fillColor=none;shape=mxgraph.archimate3.businessObject;overflow=fill;fontFamily=Helvetica;fontSize=12;fontColor=#000000;align=center;strokeColor=#6c8ebf;strokeWidth=3;" parent="jJI1wXPYuqSpDlA49wdr-0" vertex="1">
          <mxGeometry x="110" y="20" width="80" height="40" as="geometry" />
        </mxCell>
        <mxCell id="jJI1wXPYuqSpDlA49wdr-3" value="&lt;span style=&quot;color: rgb(128, 128, 128); text-align: left; font-size: 12px;&quot;&gt;Organisation&amp;nbsp;&lt;/span&gt;&lt;br style=&quot;font-size: 12px;&quot;&gt;ReEnabled" style="html=1;outlineConnect=0;whiteSpace=wrap;fillColor=none;shape=mxgraph.archimate3.businessObject;overflow=fill;fontFamily=Helvetica;fontSize=12;fontColor=#000000;align=center;strokeColor=#6c8ebf;strokeWidth=3;" parent="jJI1wXPYuqSpDlA49wdr-0" vertex="1">
          <mxGeometry x="200" y="20" width="80" height="40" as="geometry" />
        </mxCell>
        <mxCell id="jJI1wXPYuqSpDlA49wdr-4" value="&lt;span style=&quot;color: rgb(128, 128, 128); text-align: left; font-size: 12px;&quot;&gt;Organisation&amp;nbsp;&lt;/span&gt;&lt;br style=&quot;font-size: 12px;&quot;&gt;Deleted (logical)" style="html=1;outlineConnect=0;whiteSpace=wrap;fillColor=none;shape=mxgraph.archimate3.businessObject;overflow=fill;fontFamily=Helvetica;fontSize=12;fontColor=#000000;align=center;strokeColor=#6c8ebf;strokeWidth=3;" parent="jJI1wXPYuqSpDlA49wdr-0" vertex="1">
          <mxGeometry x="290" y="20" width="80" height="40" as="geometry" />
        </mxCell>
        <mxCell id="jJI1wXPYuqSpDlA49wdr-5" value="&lt;span style=&quot;color: rgb(128, 128, 128); text-align: left; font-size: 12px;&quot;&gt;Organisation&amp;nbsp;&lt;/span&gt;&lt;br style=&quot;font-size: 12px;&quot;&gt;Recovered" style="html=1;outlineConnect=0;whiteSpace=wrap;fillColor=none;shape=mxgraph.archimate3.businessObject;overflow=fill;fontFamily=Helvetica;fontSize=12;fontColor=#000000;align=center;strokeColor=#6c8ebf;strokeWidth=3;" parent="jJI1wXPYuqSpDlA49wdr-0" vertex="1">
          <mxGeometry x="380" y="20" width="80" height="40" as="geometry" />
        </mxCell>
        <mxCell id="fmZvaLe-XI9COqAeDO_F-6" value="Session" style="rounded=1;whiteSpace=wrap;html=1;strokeColor=#666666;strokeWidth=1;fillColor=none;dashed=1;verticalAlign=top;align=left;spacingLeft=4;spacing=0;spacingTop=-5;fontColor=#666666;arcSize=16;absoluteArcSize=1;collapsible=0;container=1;recursiveResize=0;fontSize=12;labelBackgroundColor=none;" parent="vOTk4Zx6DeMy-Cd0G5HF-4" vertex="1">
          <mxGeometry x="120" y="720" width="560" height="70" as="geometry" />
        </mxCell>
        <mxCell id="fmZvaLe-XI9COqAeDO_F-7" value="&lt;span style=&quot;color: rgb(128 , 128 , 128) ; text-align: left ; font-size: 12px&quot;&gt;Session&lt;/span&gt;&lt;br style=&quot;font-size: 12px&quot;&gt;Created" style="html=1;outlineConnect=0;whiteSpace=wrap;fillColor=none;shape=mxgraph.archimate3.businessObject;overflow=fill;fontFamily=Helvetica;fontSize=12;fontColor=#000000;align=center;strokeColor=#6c8ebf;strokeWidth=3;" parent="fmZvaLe-XI9COqAeDO_F-6" vertex="1">
          <mxGeometry x="20" y="20" width="80" height="40" as="geometry" />
        </mxCell>
        <mxCell id="fmZvaLe-XI9COqAeDO_F-8" value="&lt;span style=&quot;color: rgb(128 , 128 , 128) ; text-align: left ; font-size: 12px&quot;&gt;Session&amp;nbsp;&lt;/span&gt;&lt;br style=&quot;font-size: 12px&quot;&gt;Disabled" style="html=1;outlineConnect=0;whiteSpace=wrap;fillColor=none;shape=mxgraph.archimate3.businessObject;overflow=fill;fontFamily=Helvetica;fontSize=12;fontColor=#000000;align=center;strokeColor=#6c8ebf;strokeWidth=3;" parent="fmZvaLe-XI9COqAeDO_F-6" vertex="1">
          <mxGeometry x="110" y="20" width="80" height="40" as="geometry" />
        </mxCell>
        <mxCell id="fmZvaLe-XI9COqAeDO_F-22" value="Note" parent="G9qh6bkMPozk5LiaP4H1-0" />
        <mxCell id="fmZvaLe-XI9COqAeDO_F-16" value="For example: &lt;i&gt;SessionCreated&lt;/i&gt;&amp;nbsp;message would be Subscribed to by an Account Module to update Subscription &lt;font face=&quot;Lucida Console&quot;&gt;LastUsed&lt;/font&gt;" style="shape=note;whiteSpace=wrap;html=1;size=14;verticalAlign=top;align=left;spacingTop=-6;" parent="fmZvaLe-XI9COqAeDO_F-22" vertex="1">
          <mxGeometry x="420" y="730" width="240" height="50" as="geometry" />
        </mxCell>
        <mxCell id="fmZvaLe-XI9COqAeDO_F-21" value="Title/Diagram" parent="G9qh6bkMPozk5LiaP4H1-0" />
        <mxCell id="vOTk4Zx6DeMy-Cd0G5HF-3" value="Title/Page" parent="G9qh6bkMPozk5LiaP4H1-0" visible="0" />
        <mxCell id="vOTk4Zx6DeMy-Cd0G5HF-0" value="" style="group;fontSize=12;movable=0;resizable=0;rotatable=0;deletable=0;editable=0;connectable=0;" parent="vOTk4Zx6DeMy-Cd0G5HF-3" vertex="1" connectable="0">
          <mxGeometry x="120" y="120" width="560" height="50" as="geometry" />
        </mxCell>
        <mxCell id="vOTk4Zx6DeMy-Cd0G5HF-1" value="&lt;font style=&quot;font-size: 11px&quot;&gt;Base Logical Module - Information -&amp;nbsp;System Messages&lt;/font&gt;" style="text;strokeColor=none;fillColor=none;html=1;fontSize=24;fontStyle=1;verticalAlign=middle;align=left;shadow=0;glass=0;comic=0;opacity=30;fontColor=#808080;" parent="vOTk4Zx6DeMy-Cd0G5HF-0" vertex="1">
          <mxGeometry width="485.3333333333333" height="40" as="geometry" />
        </mxCell>
        <mxCell id="vOTk4Zx6DeMy-Cd0G5HF-2" value="" style="line;strokeWidth=2;html=1;shadow=0;glass=0;comic=0;fillColor=none;fontSize=10;fontColor=#CCCCCC;labelBackgroundColor=none;strokeColor=#CCCCCC;" parent="vOTk4Zx6DeMy-Cd0G5HF-0" vertex="1">
          <mxGeometry y="35" width="560" height="10" as="geometry" />
        </mxCell>
        <UserObject label="" tooltip="ABOUT&#xa;&#xa;It&#39;s easy to forget to plan Notifications beyond something that needs doing at some point. &#xa;But they require far more attention. They are Views of the system, just like any Presentation layer View -- except that they are using an ancient technology protocol (more or less from the same era as the teletype, prior to faxes...) to get the Output View in front of the end user.&#xa;&#xa;&#xa;&#xa;Plan for their Attributes, Structure, Formatting, Sequence, Triggers and Delivery as carefully as one would any current HTML5 based Output View." id="C8xpgROm1Ep4oLZc5uPJ-0">
          <mxCell style="shape=image;html=1;verticalAlign=top;verticalLabelPosition=bottom;labelBackgroundColor=#ffffff;imageAspect=0;aspect=fixed;image=https://cdn1.iconfinder.com/data/icons/hawcons/32/699014-icon-28-information-128.png;shadow=0;dashed=0;fontFamily=Helvetica;fontSize=12;fontColor=#000000;align=center;strokeColor=#000000;fillColor=#505050;dashPattern=1 1;" parent="vOTk4Zx6DeMy-Cd0G5HF-0" vertex="1">
            <mxGeometry x="540" y="10" width="20" height="20" as="geometry" />
          </mxCell>
        </UserObject>
        <mxCell id="G9qh6bkMPozk5LiaP4H1-1" value="About" parent="G9qh6bkMPozk5LiaP4H1-0" />
        <mxCell id="fmZvaLe-XI9COqAeDO_F-18" value="&lt;font style=&quot;font-size: 12px&quot;&gt;Diagram: Information Messages -&amp;nbsp;System Messages&lt;/font&gt;" style="text;strokeColor=none;fillColor=none;html=1;fontSize=24;fontStyle=2;verticalAlign=middle;align=left;shadow=0;glass=0;comic=0;opacity=30;fontColor=#808080;" parent="G9qh6bkMPozk5LiaP4H1-1" vertex="1">
          <mxGeometry x="120" y="810" width="480" height="20" as="geometry" />
        </mxCell>
        <UserObject label="" tooltip="ABOUT&#xa;&#xa;It&#39;s easy to forget to plan Notifications beyond something that needs doing at some point. &#xa;But they require far more attention. They are Views of the system, just like any Presentation layer View -- except that they are using an ancient technology protocol (more or less from the same era as the teletype, prior to faxes...) to get the Output View in front of the end user.&#xa;&#xa;&#xa;&#xa;Plan for their Attributes, Structure, Formatting, Sequence, Triggers and Delivery as carefully as one would any current HTML5 based Output View." id="fmZvaLe-XI9COqAeDO_F-20">
          <mxCell style="shape=image;html=1;verticalAlign=top;verticalLabelPosition=bottom;labelBackgroundColor=#ffffff;imageAspect=0;aspect=fixed;image=https://cdn1.iconfinder.com/data/icons/hawcons/32/699014-icon-28-information-128.png;shadow=0;dashed=0;fontFamily=Helvetica;fontSize=12;fontColor=#000000;align=center;strokeColor=#000000;fillColor=#505050;dashPattern=1 1;" parent="G9qh6bkMPozk5LiaP4H1-1" vertex="1">
            <mxGeometry x="660" y="810" width="20" height="20" as="geometry" />
          </mxCell>
        </UserObject>
      </root>
    </mxGraphModel>
  </diagram>
  <diagram id="XKjJLNz5qh3bpdxhtYlg" name="Messages/Base System Logical Module/Views">
    <mxGraphModel dx="1130" dy="406" grid="1" gridSize="10" guides="1" tooltips="1" connect="1" arrows="1" fold="1" page="1" pageScale="1" pageWidth="827" pageHeight="1169" math="0" shadow="0">
      <root>
        <mxCell id="RlGNaPQU-10eKZ_4LYEI-0" />
        <mxCell id="RlGNaPQU-10eKZ_4LYEI-1" value="Diagram/ERD" parent="RlGNaPQU-10eKZ_4LYEI-0" />
        <mxCell id="bzVqmwfYUQ5chfFC-slc-0" value="Dashboard" style="rounded=1;whiteSpace=wrap;html=1;strokeColor=#6c8ebf;strokeWidth=1;fillColor=none;dashed=1;verticalAlign=top;align=left;spacingLeft=4;spacing=0;spacingTop=-5;arcSize=16;absoluteArcSize=1;collapsible=0;container=1;recursiveResize=0;fontSize=12;labelBackgroundColor=none;horizontal=0;" parent="RlGNaPQU-10eKZ_4LYEI-1" vertex="1">
          <mxGeometry x="380" y="240" width="190" height="60" as="geometry" />
        </mxCell>
        <mxCell id="bzVqmwfYUQ5chfFC-slc-1" value="(Output)&lt;br style=&quot;font-size: 12px;&quot;&gt;Dashboard Item" style="strokeWidth=3;whiteSpace=wrap;html=1;align=center;fontSize=12;fillColor=none;strokeColor=#6c8ebf;" parent="bzVqmwfYUQ5chfFC-slc-0" vertex="1">
          <mxGeometry x="110" y="10" width="70" height="40" as="geometry" />
        </mxCell>
        <mxCell id="bzVqmwfYUQ5chfFC-slc-15" value="(Input)&lt;br style=&quot;font-size: 10px;&quot;&gt;Dashboard &lt;br style=&quot;font-size: 10px;&quot;&gt;List&amp;nbsp;Query&amp;nbsp;Filter" style="strokeWidth=3;whiteSpace=wrap;html=1;align=center;fontSize=10;fillColor=none;strokeColor=#6c8ebf;" parent="bzVqmwfYUQ5chfFC-slc-0" vertex="1">
          <mxGeometry x="30" y="10" width="70" height="40" as="geometry" />
        </mxCell>
        <mxCell id="bzVqmwfYUQ5chfFC-slc-13" value="Search" style="rounded=1;whiteSpace=wrap;html=1;strokeColor=#6c8ebf;strokeWidth=1;fillColor=none;dashed=1;verticalAlign=top;align=left;spacingLeft=4;spacing=0;spacingTop=-5;arcSize=16;absoluteArcSize=1;collapsible=0;container=1;recursiveResize=0;fontSize=12;labelBackgroundColor=none;horizontal=0;" parent="RlGNaPQU-10eKZ_4LYEI-1" vertex="1">
          <mxGeometry x="120" y="730" width="180" height="60" as="geometry" />
        </mxCell>
        <mxCell id="bzVqmwfYUQ5chfFC-slc-14" value="(Input)&lt;br style=&quot;font-size: 12px;&quot;&gt;Search Query" style="strokeWidth=3;whiteSpace=wrap;html=1;align=center;fontSize=12;fillColor=none;strokeColor=#6c8ebf;" parent="bzVqmwfYUQ5chfFC-slc-13" vertex="1">
          <mxGeometry x="20" y="10" width="70" height="40" as="geometry" />
        </mxCell>
        <mxCell id="bzVqmwfYUQ5chfFC-slc-66" value="(Output)&lt;br style=&quot;font-size: 12px;&quot;&gt;Summary Item" style="strokeWidth=3;whiteSpace=wrap;html=1;align=center;fontSize=12;fillColor=none;strokeColor=#6c8ebf;dashed=1;" parent="bzVqmwfYUQ5chfFC-slc-13" vertex="1">
          <mxGeometry x="100" y="10" width="70" height="40" as="geometry" />
        </mxCell>
        <mxCell id="bzVqmwfYUQ5chfFC-slc-16" value="Session" style="rounded=1;whiteSpace=wrap;html=1;strokeColor=#6c8ebf;strokeWidth=1;fillColor=none;dashed=1;verticalAlign=top;align=left;spacingLeft=4;spacing=0;spacingTop=-5;arcSize=16;absoluteArcSize=1;collapsible=0;container=1;recursiveResize=0;fontSize=12;labelBackgroundColor=none;horizontal=0;" parent="RlGNaPQU-10eKZ_4LYEI-1" vertex="1">
          <mxGeometry x="120" y="660" width="260" height="60" as="geometry" />
        </mxCell>
        <mxCell id="bzVqmwfYUQ5chfFC-slc-17" value="(Input)&lt;br style=&quot;font-size: 12px;&quot;&gt;Session &lt;br style=&quot;font-size: 12px;&quot;&gt;List&amp;nbsp;Query&amp;nbsp;Filter" style="strokeWidth=3;whiteSpace=wrap;html=1;align=center;fontSize=12;fillColor=none;strokeColor=#6c8ebf;" parent="bzVqmwfYUQ5chfFC-slc-16" vertex="1">
          <mxGeometry x="30" y="10" width="80" height="40" as="geometry" />
        </mxCell>
        <mxCell id="bzVqmwfYUQ5chfFC-slc-28" value="(Output)&lt;br style=&quot;font-size: 12px;&quot;&gt;Session" style="strokeWidth=3;whiteSpace=wrap;html=1;align=center;fontSize=12;fillColor=none;strokeColor=#6c8ebf;" parent="bzVqmwfYUQ5chfFC-slc-16" vertex="1">
          <mxGeometry x="170" y="10" width="70" height="40" as="geometry" />
        </mxCell>
        <mxCell id="iZ_FuZ2ScjPNwb8ilGRS-3" value="&lt;font style=&quot;font-size: 12px;&quot;&gt;(Output)&lt;br style=&quot;font-size: 12px;&quot;&gt;Summary &lt;br style=&quot;font-size: 12px;&quot;&gt;Item&lt;/font&gt;" style="strokeWidth=3;whiteSpace=wrap;html=1;align=center;fontSize=12;fillColor=none;strokeColor=#6c8ebf;dashed=1;" parent="bzVqmwfYUQ5chfFC-slc-16" vertex="1">
          <mxGeometry x="120" y="10" width="40" height="40" as="geometry" />
        </mxCell>
        <mxCell id="bzVqmwfYUQ5chfFC-slc-24" value="Operations" style="rounded=1;whiteSpace=wrap;html=1;strokeColor=#6c8ebf;strokeWidth=1;fillColor=none;dashed=1;verticalAlign=top;align=left;spacingLeft=4;spacing=0;spacingTop=-5;arcSize=16;absoluteArcSize=1;collapsible=0;container=1;recursiveResize=0;fontSize=12;labelBackgroundColor=none;horizontal=0;" parent="RlGNaPQU-10eKZ_4LYEI-1" vertex="1">
          <mxGeometry x="390" y="660" width="260" height="60" as="geometry" />
        </mxCell>
        <mxCell id="bzVqmwfYUQ5chfFC-slc-23" value="(Input)&lt;br style=&quot;font-size: 12px;&quot;&gt;&lt;font style=&quot;font-size: 12px;&quot;&gt;SessionOperation&lt;/font&gt;&lt;br style=&quot;font-size: 12px;&quot;&gt;Query Filter" style="strokeWidth=3;whiteSpace=wrap;html=1;align=center;fontSize=12;fillColor=none;strokeColor=#6c8ebf;" parent="bzVqmwfYUQ5chfFC-slc-24" vertex="1">
          <mxGeometry x="30" y="10" width="70" height="40" as="geometry" />
        </mxCell>
        <mxCell id="bzVqmwfYUQ5chfFC-slc-27" value="(Output)&lt;br style=&quot;font-size: 10px;&quot;&gt;&lt;font style=&quot;font-size: 10px;&quot;&gt;SessionOperation&lt;/font&gt;" style="strokeWidth=3;whiteSpace=wrap;html=1;align=center;fontSize=10;fillColor=none;strokeColor=#6c8ebf;" parent="bzVqmwfYUQ5chfFC-slc-24" vertex="1">
          <mxGeometry x="170" y="10" width="80" height="40" as="geometry" />
        </mxCell>
        <mxCell id="iZ_FuZ2ScjPNwb8ilGRS-12" value="&lt;font style=&quot;font-size: 12px;&quot;&gt;(Output)&lt;br style=&quot;font-size: 12px;&quot;&gt;Summary &lt;br style=&quot;font-size: 12px;&quot;&gt;Item&lt;/font&gt;" style="strokeWidth=3;whiteSpace=wrap;html=1;align=center;fontSize=12;fillColor=none;strokeColor=#6c8ebf;dashed=1;" parent="bzVqmwfYUQ5chfFC-slc-24" vertex="1">
          <mxGeometry x="110" y="10" width="50" height="40" as="geometry" />
        </mxCell>
        <mxCell id="bzVqmwfYUQ5chfFC-slc-46" value="System Permission" style="rounded=1;whiteSpace=wrap;html=1;strokeColor=#6c8ebf;strokeWidth=1;fillColor=none;dashed=1;verticalAlign=top;align=left;spacingLeft=4;spacing=0;spacingTop=-5;arcSize=16;absoluteArcSize=1;collapsible=0;container=1;recursiveResize=0;fontSize=12;labelBackgroundColor=none;horizontal=0;" parent="RlGNaPQU-10eKZ_4LYEI-1" vertex="1">
          <mxGeometry x="390" y="450" width="250" height="60" as="geometry" />
        </mxCell>
        <mxCell id="bzVqmwfYUQ5chfFC-slc-48" value="(Output)&lt;br style=&quot;font-size: 12px;&quot;&gt;&lt;span style=&quot;font-size: 12px;&quot;&gt;System Permission&lt;/span&gt;&amp;nbsp;" style="strokeWidth=3;whiteSpace=wrap;html=1;align=center;fontSize=12;fillColor=none;strokeColor=#6c8ebf;" parent="bzVqmwfYUQ5chfFC-slc-46" vertex="1">
          <mxGeometry x="170" y="10" width="70" height="40" as="geometry" />
        </mxCell>
        <mxCell id="bzVqmwfYUQ5chfFC-slc-50" value="(Input)&lt;br style=&quot;font-size: 10px;&quot;&gt;&lt;font style=&quot;font-size: 10px;&quot;&gt;System Permission&lt;/font&gt;&lt;br style=&quot;font-size: 10px;&quot;&gt;List Query Filter" style="strokeWidth=3;whiteSpace=wrap;html=1;align=center;fontSize=10;fillColor=none;strokeColor=#6c8ebf;" parent="bzVqmwfYUQ5chfFC-slc-46" vertex="1">
          <mxGeometry x="30" y="10" width="70" height="40" as="geometry" />
        </mxCell>
        <mxCell id="iZ_FuZ2ScjPNwb8ilGRS-15" value="&lt;font style=&quot;font-size: 12px;&quot;&gt;(Output)&lt;br style=&quot;font-size: 12px;&quot;&gt;Summary &lt;br style=&quot;font-size: 12px;&quot;&gt;Item&lt;/font&gt;" style="strokeWidth=3;whiteSpace=wrap;html=1;align=center;fontSize=12;fillColor=none;strokeColor=#6c8ebf;dashed=1;" parent="bzVqmwfYUQ5chfFC-slc-46" vertex="1">
          <mxGeometry x="110" y="10" width="50" height="40" as="geometry" />
        </mxCell>
        <mxCell id="bzVqmwfYUQ5chfFC-slc-51" value="ErrorRecord" style="rounded=1;whiteSpace=wrap;html=1;strokeColor=#6c8ebf;strokeWidth=1;fillColor=none;dashed=1;verticalAlign=top;align=left;spacingLeft=4;spacing=0;spacingTop=-5;arcSize=16;absoluteArcSize=1;collapsible=0;container=1;recursiveResize=0;fontSize=12;labelBackgroundColor=none;horizontal=0;" parent="RlGNaPQU-10eKZ_4LYEI-1" vertex="1">
          <mxGeometry x="120" y="240" width="250" height="60" as="geometry" />
        </mxCell>
        <mxCell id="bzVqmwfYUQ5chfFC-slc-53" value="(Output)&lt;br style=&quot;font-size: 12px;&quot;&gt;&lt;font style=&quot;font-size: 12px;&quot;&gt;Error Record&lt;/font&gt;" style="strokeWidth=3;whiteSpace=wrap;html=1;align=center;fontSize=12;fillColor=none;strokeColor=#6c8ebf;" parent="bzVqmwfYUQ5chfFC-slc-51" vertex="1">
          <mxGeometry x="170" y="10" width="70" height="40" as="geometry" />
        </mxCell>
        <mxCell id="bzVqmwfYUQ5chfFC-slc-54" value="(Input)&lt;br style=&quot;font-size: 10px;&quot;&gt;&lt;font style=&quot;font-size: 10px;&quot;&gt;Error Record&lt;/font&gt;&lt;br style=&quot;font-size: 10px;&quot;&gt;List Query Filter" style="strokeWidth=3;whiteSpace=wrap;html=1;align=center;fontSize=10;fillColor=none;strokeColor=#6c8ebf;" parent="bzVqmwfYUQ5chfFC-slc-51" vertex="1">
          <mxGeometry x="30" y="10" width="80" height="40" as="geometry" />
        </mxCell>
        <mxCell id="JoiF1H_VCcnCCUFBP2yf-4" value="&lt;font style=&quot;font-size: 12px;&quot;&gt;(Output)&lt;br style=&quot;font-size: 12px;&quot;&gt;Summary &lt;br style=&quot;font-size: 12px;&quot;&gt;Item&lt;/font&gt;" style="strokeWidth=3;whiteSpace=wrap;html=1;align=center;fontSize=12;fillColor=none;strokeColor=#6c8ebf;dashed=1;" parent="bzVqmwfYUQ5chfFC-slc-51" vertex="1">
          <mxGeometry x="120" y="10.20001220703125" width="40" height="40" as="geometry" />
        </mxCell>
        <mxCell id="bzVqmwfYUQ5chfFC-slc-56" value="System Info" style="rounded=1;whiteSpace=wrap;html=1;strokeColor=#6c8ebf;strokeWidth=1;fillColor=none;dashed=1;verticalAlign=top;align=left;spacingLeft=4;spacing=0;spacingTop=-5;arcSize=16;absoluteArcSize=1;collapsible=0;container=1;recursiveResize=0;fontSize=12;labelBackgroundColor=none;horizontal=0;" parent="RlGNaPQU-10eKZ_4LYEI-1" vertex="1">
          <mxGeometry x="120" y="310" width="280" height="60" as="geometry" />
        </mxCell>
        <mxCell id="bzVqmwfYUQ5chfFC-slc-57" value="(Output)&lt;br style=&quot;font-size: 12px;&quot;&gt;Sponsor Information" style="strokeWidth=3;whiteSpace=wrap;html=1;align=center;fontSize=12;fillColor=none;strokeColor=#6c8ebf;" parent="bzVqmwfYUQ5chfFC-slc-56" vertex="1">
          <mxGeometry x="30" y="10" width="80" height="40" as="geometry" />
        </mxCell>
        <mxCell id="bzVqmwfYUQ5chfFC-slc-58" value="(Output)&lt;br style=&quot;font-size: 12px;&quot;&gt;Reseller&amp;nbsp;&lt;br style=&quot;font-size: 12px;&quot;&gt;Information" style="strokeWidth=3;whiteSpace=wrap;html=1;align=center;fontSize=12;fillColor=none;strokeColor=#6c8ebf;" parent="bzVqmwfYUQ5chfFC-slc-56" vertex="1">
          <mxGeometry x="120" y="10" width="70" height="40" as="geometry" />
        </mxCell>
        <mxCell id="bzVqmwfYUQ5chfFC-slc-59" value="(Output)&lt;br style=&quot;font-size: 12px;&quot;&gt;System Information" style="strokeWidth=3;whiteSpace=wrap;html=1;align=center;fontSize=12;fillColor=none;strokeColor=#6c8ebf;" parent="bzVqmwfYUQ5chfFC-slc-56" vertex="1">
          <mxGeometry x="200" y="10" width="70" height="40" as="geometry" />
        </mxCell>
        <mxCell id="bzVqmwfYUQ5chfFC-slc-61" value="Sys Status" style="rounded=1;whiteSpace=wrap;html=1;strokeColor=#6c8ebf;strokeWidth=1;fillColor=none;dashed=1;verticalAlign=top;align=left;spacingLeft=4;spacing=0;spacingTop=-5;arcSize=16;absoluteArcSize=1;collapsible=0;container=1;recursiveResize=0;fontSize=12;labelBackgroundColor=none;horizontal=0;" parent="RlGNaPQU-10eKZ_4LYEI-1" vertex="1">
          <mxGeometry x="410" y="310" width="180" height="60" as="geometry" />
        </mxCell>
        <mxCell id="bzVqmwfYUQ5chfFC-slc-62" value="(Output)&lt;br style=&quot;font-size: 12px;&quot;&gt;System Status" style="strokeWidth=3;whiteSpace=wrap;html=1;align=center;fontSize=12;fillColor=none;strokeColor=#6c8ebf;" parent="bzVqmwfYUQ5chfFC-slc-61" vertex="1">
          <mxGeometry x="20" y="10" width="70" height="40" as="geometry" />
        </mxCell>
        <mxCell id="bzVqmwfYUQ5chfFC-slc-65" value="(Output)&lt;br style=&quot;font-size: 12px;&quot;&gt;&lt;font style=&quot;font-size: 12px;&quot;&gt;System Component&lt;/font&gt; Status" style="strokeWidth=3;whiteSpace=wrap;html=1;align=center;fontSize=12;fillColor=none;strokeColor=#6c8ebf;" parent="bzVqmwfYUQ5chfFC-slc-61" vertex="1">
          <mxGeometry x="100" y="10" width="70" height="40" as="geometry" />
        </mxCell>
        <mxCell id="vRvpL60mSr6qO9O3WgL8-0" value="Module" style="rounded=1;whiteSpace=wrap;html=1;strokeColor=#6c8ebf;strokeWidth=1;fillColor=none;dashed=1;verticalAlign=top;align=left;spacingLeft=4;spacing=0;spacingTop=-5;arcSize=16;absoluteArcSize=1;collapsible=0;container=1;recursiveResize=0;fontSize=12;labelBackgroundColor=none;horizontal=0;" parent="RlGNaPQU-10eKZ_4LYEI-1" vertex="1">
          <mxGeometry x="120" y="450" width="260" height="60" as="geometry" />
        </mxCell>
        <mxCell id="vRvpL60mSr6qO9O3WgL8-1" value="&lt;font style=&quot;font-size: 12px;&quot;&gt;(Output)&lt;br style=&quot;font-size: 12px;&quot;&gt;Summary &lt;br style=&quot;font-size: 12px;&quot;&gt;Item&lt;/font&gt;" style="strokeWidth=3;whiteSpace=wrap;html=1;align=center;fontSize=12;fillColor=none;strokeColor=#6c8ebf;dashed=1;" parent="vRvpL60mSr6qO9O3WgL8-0" vertex="1">
          <mxGeometry x="120" y="10" width="40" height="40" as="geometry" />
        </mxCell>
        <mxCell id="vRvpL60mSr6qO9O3WgL8-2" value="(Output)&lt;br style=&quot;font-size: 12px;&quot;&gt;&lt;font style=&quot;font-size: 12px;&quot;&gt;Module&lt;/font&gt;" style="strokeWidth=3;whiteSpace=wrap;html=1;align=center;fontSize=12;fillColor=none;strokeColor=#6c8ebf;" parent="vRvpL60mSr6qO9O3WgL8-0" vertex="1">
          <mxGeometry x="170" y="10" width="70" height="40" as="geometry" />
        </mxCell>
        <mxCell id="vRvpL60mSr6qO9O3WgL8-3" value="(Input)&lt;br style=&quot;font-size: 10px;&quot;&gt;&lt;font style=&quot;font-size: 10px;&quot;&gt;Module&lt;/font&gt;&lt;br style=&quot;font-size: 10px;&quot;&gt;List Query Filter" style="strokeWidth=3;whiteSpace=wrap;html=1;align=center;fontSize=10;fillColor=none;strokeColor=#6c8ebf;" parent="vRvpL60mSr6qO9O3WgL8-0" vertex="1">
          <mxGeometry x="30" y="10" width="80" height="40" as="geometry" />
        </mxCell>
        <mxCell id="vRvpL60mSr6qO9O3WgL8-10" value="Operation Status" style="rounded=1;whiteSpace=wrap;html=1;strokeColor=#6c8ebf;strokeWidth=1;fillColor=none;dashed=1;verticalAlign=top;align=left;spacingLeft=4;spacing=0;spacingTop=-5;arcSize=16;absoluteArcSize=1;collapsible=0;container=1;recursiveResize=0;fontSize=12;labelBackgroundColor=none;horizontal=0;" parent="RlGNaPQU-10eKZ_4LYEI-1" vertex="1">
          <mxGeometry x="120" y="380" width="180" height="60" as="geometry" />
        </mxCell>
        <mxCell id="vRvpL60mSr6qO9O3WgL8-12" value="(Output)&lt;br style=&quot;font-size: 10px;&quot;&gt;Command Queue Status" style="strokeWidth=3;whiteSpace=wrap;html=1;align=center;fontSize=10;fillColor=none;strokeColor=#6c8ebf;" parent="vRvpL60mSr6qO9O3WgL8-10" vertex="1">
          <mxGeometry x="20" y="10" width="70" height="40" as="geometry" />
        </mxCell>
        <mxCell id="vRvpL60mSr6qO9O3WgL8-13" value="(Output)&lt;br style=&quot;font-size: 12px;&quot;&gt;Command Status" style="strokeWidth=3;whiteSpace=wrap;html=1;align=center;fontSize=12;fillColor=none;strokeColor=#6c8ebf;" parent="vRvpL60mSr6qO9O3WgL8-10" vertex="1">
          <mxGeometry x="100" y="10" width="70" height="40" as="geometry" />
        </mxCell>
        <mxCell id="vRvpL60mSr6qO9O3WgL8-22" value="System Role" style="rounded=1;whiteSpace=wrap;html=1;strokeColor=#6c8ebf;strokeWidth=1;fillColor=none;dashed=1;verticalAlign=top;align=left;spacingLeft=4;spacing=0;spacingTop=-5;arcSize=16;absoluteArcSize=1;collapsible=0;container=1;recursiveResize=0;fontSize=12;labelBackgroundColor=none;horizontal=0;" parent="RlGNaPQU-10eKZ_4LYEI-1" vertex="1">
          <mxGeometry x="120" y="590" width="410" height="60" as="geometry" />
        </mxCell>
        <mxCell id="vRvpL60mSr6qO9O3WgL8-24" value="(Output)&lt;br style=&quot;font-size: 12px;&quot;&gt;System Role&amp;nbsp;" style="strokeWidth=3;whiteSpace=wrap;html=1;align=center;fontSize=12;fillColor=none;strokeColor=#6c8ebf;" parent="vRvpL60mSr6qO9O3WgL8-22" vertex="1">
          <mxGeometry x="170" y="10" width="70" height="40" as="geometry" />
        </mxCell>
        <mxCell id="vRvpL60mSr6qO9O3WgL8-25" value="(Input)&lt;br style=&quot;font-size: 12px;&quot;&gt;System Role Add/Update " style="strokeWidth=3;whiteSpace=wrap;html=1;align=center;fontSize=12;fillColor=none;strokeColor=#6c8ebf;" parent="vRvpL60mSr6qO9O3WgL8-22" vertex="1">
          <mxGeometry x="250" y="10" width="70" height="40" as="geometry" />
        </mxCell>
        <mxCell id="vRvpL60mSr6qO9O3WgL8-26" value="(Input)&lt;br style=&quot;font-size: 10px;&quot;&gt;System Role&lt;br style=&quot;font-size: 10px;&quot;&gt;List Query Filter" style="strokeWidth=3;whiteSpace=wrap;html=1;align=center;fontSize=10;fillColor=none;strokeColor=#6c8ebf;" parent="vRvpL60mSr6qO9O3WgL8-22" vertex="1">
          <mxGeometry x="30" y="10" width="80" height="40" as="geometry" />
        </mxCell>
        <mxCell id="vRvpL60mSr6qO9O3WgL8-32" value="(Input)&lt;br style=&quot;font-size: 12px;&quot;&gt;System Role&amp;nbsp;&lt;br style=&quot;font-size: 12px;&quot;&gt;&lt;font style=&quot;font-size: 12px;&quot;&gt;Allocate Permissions&lt;/font&gt;" style="strokeWidth=3;whiteSpace=wrap;html=1;align=center;fontSize=12;fillColor=none;strokeColor=#6c8ebf;" parent="vRvpL60mSr6qO9O3WgL8-22" vertex="1">
          <mxGeometry x="330" y="10" width="70" height="40" as="geometry" />
        </mxCell>
        <mxCell id="iZ_FuZ2ScjPNwb8ilGRS-0" value="&lt;font style=&quot;font-size: 12px;&quot;&gt;(Output)&lt;br style=&quot;font-size: 12px;&quot;&gt;Summary &lt;br style=&quot;font-size: 12px;&quot;&gt;Item&lt;/font&gt;" style="strokeWidth=3;whiteSpace=wrap;html=1;align=center;fontSize=12;fillColor=none;strokeColor=#6c8ebf;dashed=1;" parent="vRvpL60mSr6qO9O3WgL8-22" vertex="1">
          <mxGeometry x="120" y="10.20001220703125" width="40" height="40" as="geometry" />
        </mxCell>
        <mxCell id="vRvpL60mSr6qO9O3WgL8-27" value="Login" style="rounded=1;whiteSpace=wrap;html=1;strokeColor=#6c8ebf;strokeWidth=1;fillColor=none;dashed=1;verticalAlign=top;align=left;spacingLeft=4;spacing=0;spacingTop=-5;arcSize=16;absoluteArcSize=1;collapsible=0;container=1;recursiveResize=0;fontSize=12;labelBackgroundColor=none;horizontal=0;" parent="RlGNaPQU-10eKZ_4LYEI-1" vertex="1">
          <mxGeometry x="120" y="520" width="320" height="60" as="geometry" />
        </mxCell>
        <mxCell id="vRvpL60mSr6qO9O3WgL8-29" value="(Input)&lt;br style=&quot;font-size: 12px;&quot;&gt;Add/Updaet" style="strokeWidth=3;whiteSpace=wrap;html=1;align=center;fontSize=12;fillColor=none;strokeColor=#6c8ebf;" parent="vRvpL60mSr6qO9O3WgL8-27" vertex="1">
          <mxGeometry x="160" y="10" width="70" height="40" as="geometry" />
        </mxCell>
        <mxCell id="vRvpL60mSr6qO9O3WgL8-31" value="(Input)&lt;br style=&quot;font-size: 10px;&quot;&gt;Login&lt;br style=&quot;font-size: 10px;&quot;&gt;List Query Filter" style="strokeWidth=3;whiteSpace=wrap;html=1;align=center;fontSize=10;fillColor=none;strokeColor=#6c8ebf;" parent="vRvpL60mSr6qO9O3WgL8-27" vertex="1">
          <mxGeometry x="30" y="10" width="70" height="40" as="geometry" />
        </mxCell>
        <mxCell id="iZ_FuZ2ScjPNwb8ilGRS-2" value="&lt;font style=&quot;font-size: 12px;&quot;&gt;(Output)&lt;br style=&quot;font-size: 12px;&quot;&gt;Summary &lt;br style=&quot;font-size: 12px;&quot;&gt;Item&lt;/font&gt;" style="strokeWidth=3;whiteSpace=wrap;html=1;align=center;fontSize=12;fillColor=none;strokeColor=#6c8ebf;dashed=1;" parent="vRvpL60mSr6qO9O3WgL8-27" vertex="1">
          <mxGeometry x="110" y="10.20001220703125" width="40" height="40" as="geometry" />
        </mxCell>
        <mxCell id="JoiF1H_VCcnCCUFBP2yf-7" value="(Output)&lt;br style=&quot;font-size: 12px;&quot;&gt;Login" style="strokeWidth=3;whiteSpace=wrap;html=1;align=center;fontSize=12;fillColor=none;strokeColor=#6c8ebf;" parent="vRvpL60mSr6qO9O3WgL8-27" vertex="1">
          <mxGeometry x="240" y="10" width="70" height="40" as="geometry" />
        </mxCell>
        <mxCell id="vRvpL60mSr6qO9O3WgL8-64" value="System&amp;nbsp;&lt;br style=&quot;font-size: 12px;&quot;&gt;&lt;font style=&quot;font-size: 12px;&quot;&gt;Notification&lt;/font&gt;" style="rounded=1;whiteSpace=wrap;html=1;strokeColor=#6c8ebf;strokeWidth=1;fillColor=none;dashed=1;verticalAlign=top;align=left;spacingLeft=4;spacing=0;spacingTop=-5;arcSize=16;absoluteArcSize=1;collapsible=0;container=1;recursiveResize=0;fontSize=12;labelBackgroundColor=none;horizontal=0;" parent="RlGNaPQU-10eKZ_4LYEI-1" vertex="1">
          <mxGeometry x="120" y="800" width="410" height="60" as="geometry" />
        </mxCell>
        <mxCell id="vRvpL60mSr6qO9O3WgL8-66" value="(Output)&lt;br style=&quot;font-size: 12px;&quot;&gt;&lt;span style=&quot;font-size: 12px;&quot;&gt;Notification&lt;/span&gt;&amp;nbsp;" style="strokeWidth=3;whiteSpace=wrap;html=1;align=center;fontSize=12;fillColor=none;strokeColor=#6c8ebf;" parent="vRvpL60mSr6qO9O3WgL8-64" vertex="1">
          <mxGeometry x="170" y="10" width="70" height="40" as="geometry" />
        </mxCell>
        <mxCell id="vRvpL60mSr6qO9O3WgL8-67" value="(Input)&lt;br style=&quot;font-size: 12px;&quot;&gt;&lt;span style=&quot;font-size: 12px;&quot;&gt;Notification&lt;br style=&quot;font-size: 12px;&quot;&gt;&lt;/span&gt;&amp;nbsp;Add/Update " style="strokeWidth=3;whiteSpace=wrap;html=1;align=center;fontSize=12;fillColor=none;strokeColor=#6c8ebf;" parent="vRvpL60mSr6qO9O3WgL8-64" vertex="1">
          <mxGeometry x="250" y="10" width="70" height="40" as="geometry" />
        </mxCell>
        <mxCell id="vRvpL60mSr6qO9O3WgL8-68" value="(Input)&lt;br style=&quot;font-size: 10px;&quot;&gt;&lt;font style=&quot;font-size: 10px;&quot;&gt;Notification&lt;/font&gt;&lt;br style=&quot;font-size: 10px;&quot;&gt;List Query Filter" style="strokeWidth=3;whiteSpace=wrap;html=1;align=center;fontSize=10;fillColor=none;strokeColor=#6c8ebf;" parent="vRvpL60mSr6qO9O3WgL8-64" vertex="1">
          <mxGeometry x="30" y="10" width="80" height="40" as="geometry" />
        </mxCell>
        <mxCell id="vRvpL60mSr6qO9O3WgL8-69" value="(Input)&lt;br style=&quot;font-size: 10px;&quot;&gt;&lt;span style=&quot;font-size: 10px;&quot;&gt;Notification&lt;br style=&quot;font-size: 10px;&quot;&gt;&lt;/span&gt;Change Status&amp;nbsp;" style="strokeWidth=3;whiteSpace=wrap;html=1;align=center;fontSize=10;fillColor=none;strokeColor=#6c8ebf;" parent="vRvpL60mSr6qO9O3WgL8-64" vertex="1">
          <mxGeometry x="330" y="10" width="70" height="40" as="geometry" />
        </mxCell>
        <mxCell id="iZ_FuZ2ScjPNwb8ilGRS-11" value="&lt;font style=&quot;font-size: 12px;&quot;&gt;(Output)&lt;br style=&quot;font-size: 12px;&quot;&gt;Summary &lt;br style=&quot;font-size: 12px;&quot;&gt;Item&lt;/font&gt;" style="strokeWidth=3;whiteSpace=wrap;html=1;align=center;fontSize=12;fillColor=none;strokeColor=#6c8ebf;dashed=1;" parent="vRvpL60mSr6qO9O3WgL8-64" vertex="1">
          <mxGeometry x="120" y="10.241345635775872" width="40" height="40" as="geometry" />
        </mxCell>
        <mxCell id="dJ_cge9SqeAAyRU-L6w_-0" value="Context/Legend" parent="RlGNaPQU-10eKZ_4LYEI-0" />
        <mxCell id="dJ_cge9SqeAAyRU-L6w_-1" value="" style="rounded=0;whiteSpace=wrap;html=1;fontSize=10;align=left;container=1;collapsible=0;fontColor=#B3B3B3;strokeColor=#B3B3B3;" parent="dJ_cge9SqeAAyRU-L6w_-0" vertex="1">
          <mxGeometry x="440" y="180" width="240" height="50" as="geometry" />
        </mxCell>
        <mxCell id="dJ_cge9SqeAAyRU-L6w_-2" value="" style="whiteSpace=wrap;html=1;aspect=fixed;fillColor=none;strokeColor=#82b366;fontSize=10;align=left;fontStyle=2;strokeWidth=2;" parent="dJ_cge9SqeAAyRU-L6w_-1" vertex="1">
          <mxGeometry x="13.294460641399398" y="16.666666666666668" width="8.333333333333334" height="8.333333333333334" as="geometry" />
        </mxCell>
        <mxCell id="dJ_cge9SqeAAyRU-L6w_-3" value="" style="whiteSpace=wrap;html=1;aspect=fixed;fillColor=none;strokeColor=#d6b656;fontSize=10;align=left;fontStyle=2;strokeWidth=2;" parent="dJ_cge9SqeAAyRU-L6w_-1" vertex="1">
          <mxGeometry x="13.294460641399398" y="28" width="8.333333333333334" height="8.333333333333334" as="geometry" />
        </mxCell>
        <mxCell id="dJ_cge9SqeAAyRU-L6w_-4" value="" style="whiteSpace=wrap;html=1;aspect=fixed;fillColor=none;strokeColor=#6c8ebf;fontSize=10;align=left;fontStyle=2;strokeWidth=2;" parent="dJ_cge9SqeAAyRU-L6w_-1" vertex="1">
          <mxGeometry x="13.294460641399398" y="39.333333333333336" width="8.333333333333334" height="8.333333333333334" as="geometry" />
        </mxCell>
        <mxCell id="dJ_cge9SqeAAyRU-L6w_-5" value="Internal, System (underlying optional Tenants)&amp;nbsp;" style="text;html=1;strokeColor=none;fillColor=none;align=left;verticalAlign=middle;whiteSpace=wrap;rounded=0;fontSize=10;fontStyle=2;fontColor=#B3B3B3;" parent="dJ_cge9SqeAAyRU-L6w_-1" vertex="1">
          <mxGeometry x="26.5945189504373" y="16.666666666666668" width="213.40548104956264" height="8.333333333333334" as="geometry" />
        </mxCell>
        <mxCell id="dJ_cge9SqeAAyRU-L6w_-6" value="Internal, (optionally) Tenanted" style="text;html=1;strokeColor=none;fillColor=none;align=left;verticalAlign=middle;whiteSpace=wrap;rounded=0;fontSize=10;fontStyle=2;fontColor=#B3B3B3;" parent="dJ_cge9SqeAAyRU-L6w_-1" vertex="1">
          <mxGeometry x="26.59" y="30" width="213.41" height="6.33" as="geometry" />
        </mxCell>
        <mxCell id="dJ_cge9SqeAAyRU-L6w_-7" value="External, Versioned Contracts/Msgs" style="text;html=1;strokeColor=none;fillColor=none;align=left;verticalAlign=middle;whiteSpace=wrap;rounded=0;fontSize=10;fontStyle=2;fontColor=#B3B3B3;" parent="dJ_cge9SqeAAyRU-L6w_-1" vertex="1">
          <mxGeometry x="26.5945189504373" y="39.333333333333336" width="213.40548104956264" height="8.333333333333334" as="geometry" />
        </mxCell>
        <mxCell id="dJ_cge9SqeAAyRU-L6w_-8" value="Legend" style="text;html=1;strokeColor=none;fillColor=none;align=center;verticalAlign=middle;whiteSpace=wrap;rounded=0;fontSize=10;fontStyle=5;fontColor=#B3B3B3;" parent="dJ_cge9SqeAAyRU-L6w_-1" vertex="1">
          <mxGeometry x="26.588921282798815" width="159.53352769679296" height="16.666666666666668" as="geometry" />
        </mxCell>
        <mxCell id="-aqZuIonFrjr3B-PxoQL-0" value="Title/Diagram" parent="RlGNaPQU-10eKZ_4LYEI-0" />
        <mxCell id="iv-P1NCXm40QytbC275W-0" value="&lt;font style=&quot;font-size: 12px&quot;&gt;Diagram: Information Messages - System Messages (DTOs)&lt;/font&gt;" style="text;strokeColor=none;fillColor=none;html=1;fontSize=24;fontStyle=2;verticalAlign=middle;align=left;shadow=0;glass=0;comic=0;opacity=30;fontColor=#808080;" parent="-aqZuIonFrjr3B-PxoQL-0" vertex="1">
          <mxGeometry x="120" y="880" width="520" height="20" as="geometry" />
        </mxCell>
        <mxCell id="vRvpL60mSr6qO9O3WgL8-5" value="Title/Page" parent="RlGNaPQU-10eKZ_4LYEI-0" visible="0" />
        <mxCell id="kPRRWjeQ4BZ_DUyq-bJB-0" value="" style="group;fontSize=10;" parent="vRvpL60mSr6qO9O3WgL8-5" vertex="1" connectable="0">
          <mxGeometry x="120" y="120" width="560" height="50" as="geometry" />
        </mxCell>
        <mxCell id="kPRRWjeQ4BZ_DUyq-bJB-1" value="&lt;font style=&quot;font-size: 11px&quot;&gt;Base Logical Module - Information -&amp;nbsp;API Messages (DTOs)&lt;/font&gt;" style="text;strokeColor=none;fillColor=none;html=1;fontSize=24;fontStyle=1;verticalAlign=middle;align=left;shadow=0;glass=0;comic=0;opacity=30;fontColor=#808080;" parent="kPRRWjeQ4BZ_DUyq-bJB-0" vertex="1">
          <mxGeometry width="560" height="40" as="geometry" />
        </mxCell>
        <mxCell id="kPRRWjeQ4BZ_DUyq-bJB-2" value="" style="line;strokeWidth=2;html=1;shadow=0;glass=0;comic=0;fillColor=none;fontSize=10;fontColor=#CCCCCC;labelBackgroundColor=none;strokeColor=#CCCCCC;" parent="kPRRWjeQ4BZ_DUyq-bJB-0" vertex="1">
          <mxGeometry y="35" width="560" height="10" as="geometry" />
        </mxCell>
        <mxCell id="vRvpL60mSr6qO9O3WgL8-4" value="About" parent="RlGNaPQU-10eKZ_4LYEI-0" />
        <UserObject label="" tooltip="ABOUT&#xa;&#xa;Internally, Systems use internal OO Entities, with Behaviour. &#xa;Behaviour cannot be transferred across the wire (ie, APIs) -- one of the reasons that internal Entities are Mapped to External Data Transfer Objects (basically OO objects without Behaviour/Methods). Other reasons include improving Security by not exposing internal system architecture choices, and improved Maintainability objectives (by being able to use Versioned DTOs to minimize disruption to Service Clients when internal Entity attributes have to be updated/changed)." id="e2kQ3TKf-c3Xd8gwdxW7-0">
          <mxCell style="shape=image;html=1;verticalAlign=top;verticalLabelPosition=bottom;labelBackgroundColor=#ffffff;imageAspect=0;aspect=fixed;image=https://cdn1.iconfinder.com/data/icons/hawcons/32/699014-icon-28-information-128.png;shadow=0;dashed=0;fontFamily=Helvetica;fontSize=12;fontColor=#000000;align=center;strokeColor=#000000;fillColor=#505050;dashPattern=1 1;" parent="vRvpL60mSr6qO9O3WgL8-4" vertex="1">
            <mxGeometry x="660" y="880" width="20" height="20" as="geometry" />
          </mxCell>
        </UserObject>
      </root>
    </mxGraphModel>
  </diagram>
  <diagram id="PHD_RbvwsBrqTLweQcoA" name="Messages/Base System Logical Module/Views (Cont)">
    <mxGraphModel dx="1130" dy="406" grid="1" gridSize="10" guides="1" tooltips="1" connect="1" arrows="1" fold="1" page="1" pageScale="1" pageWidth="827" pageHeight="1169" math="0" shadow="0">
      <root>
        <mxCell id="Xy3a7Pi1iB7YRdmvzZVX-0" />
        <mxCell id="P0Z7KiHGcuCMTp32M4vC-0" value="Diagram/" parent="Xy3a7Pi1iB7YRdmvzZVX-0" />
        <mxCell id="Xy3a7Pi1iB7YRdmvzZVX-2" value="&lt;span style=&quot;color: rgb(0, 0, 0); font-size: 12px; text-align: center;&quot;&gt;Organisation&lt;br style=&quot;font-size: 12px;&quot;&gt;&lt;/span&gt;User" style="rounded=1;whiteSpace=wrap;html=1;strokeColor=#666666;strokeWidth=1;fillColor=none;dashed=1;verticalAlign=top;align=left;spacingLeft=4;spacing=0;spacingTop=-5;fontColor=#666666;arcSize=16;absoluteArcSize=1;collapsible=0;container=1;recursiveResize=0;fontSize=12;labelBackgroundColor=none;horizontal=0;" parent="P0Z7KiHGcuCMTp32M4vC-0" vertex="1">
          <mxGeometry x="120" y="310" width="330" height="60" as="geometry" />
        </mxCell>
        <mxCell id="Xy3a7Pi1iB7YRdmvzZVX-3" value="(Output)&lt;br style=&quot;font-size: 12px;&quot;&gt;Organisation&amp;nbsp;User&amp;nbsp;" style="strokeWidth=3;whiteSpace=wrap;html=1;align=center;fontSize=12;fillColor=none;strokeColor=#6c8ebf;" parent="Xy3a7Pi1iB7YRdmvzZVX-2" vertex="1">
          <mxGeometry x="170" y="10" width="70" height="40" as="geometry" />
        </mxCell>
        <mxCell id="Xy3a7Pi1iB7YRdmvzZVX-4" value="(Input)&lt;br style=&quot;font-size: 10px;&quot;&gt;Organisation&amp;nbsp;User Add/Update " style="strokeWidth=3;whiteSpace=wrap;html=1;align=center;fontSize=10;fillColor=none;strokeColor=#6c8ebf;" parent="Xy3a7Pi1iB7YRdmvzZVX-2" vertex="1">
          <mxGeometry x="250" y="10" width="70" height="40" as="geometry" />
        </mxCell>
        <mxCell id="Xy3a7Pi1iB7YRdmvzZVX-5" value="(Input)&lt;br style=&quot;font-size: 10px;&quot;&gt;Organisation&amp;nbsp;User&lt;br style=&quot;font-size: 10px;&quot;&gt;List Query Filter" style="strokeWidth=3;whiteSpace=wrap;html=1;align=center;fontSize=10;fillColor=none;strokeColor=#6c8ebf;" parent="Xy3a7Pi1iB7YRdmvzZVX-2" vertex="1">
          <mxGeometry x="30" y="10" width="80" height="40" as="geometry" />
        </mxCell>
        <mxCell id="Xy3a7Pi1iB7YRdmvzZVX-6" value="&lt;font style=&quot;font-size: 12px;&quot;&gt;(Output)&lt;br style=&quot;font-size: 12px;&quot;&gt;Summary &lt;br style=&quot;font-size: 12px;&quot;&gt;Item&lt;/font&gt;" style="strokeWidth=3;whiteSpace=wrap;html=1;align=center;fontSize=12;fillColor=none;strokeColor=#6c8ebf;dashed=1;" parent="Xy3a7Pi1iB7YRdmvzZVX-2" vertex="1">
          <mxGeometry x="120" y="10" width="40" height="40" as="geometry" />
        </mxCell>
        <mxCell id="Xy3a7Pi1iB7YRdmvzZVX-7" value="&lt;span style=&quot;color: rgb(0, 0, 0); font-size: 12px; text-align: center;&quot;&gt;Organisation&lt;/span&gt;" style="rounded=1;whiteSpace=wrap;html=1;strokeColor=#666666;strokeWidth=1;fillColor=none;dashed=1;verticalAlign=top;align=left;spacingLeft=4;spacing=0;spacingTop=-5;fontColor=#666666;arcSize=16;absoluteArcSize=1;collapsible=0;container=1;recursiveResize=0;fontSize=12;labelBackgroundColor=none;horizontal=0;" parent="P0Z7KiHGcuCMTp32M4vC-0" vertex="1">
          <mxGeometry x="120" y="240" width="330" height="60" as="geometry" />
        </mxCell>
        <mxCell id="Xy3a7Pi1iB7YRdmvzZVX-8" value="(Input)&lt;br style=&quot;font-size: 12px;&quot;&gt;Organisation&lt;br style=&quot;font-size: 12px;&quot;&gt;List&amp;nbsp;Query&amp;nbsp;Filter" style="strokeWidth=3;whiteSpace=wrap;html=1;align=center;fontSize=12;fillColor=none;strokeColor=#6c8ebf;" parent="Xy3a7Pi1iB7YRdmvzZVX-7" vertex="1">
          <mxGeometry x="30" y="10" width="80" height="40" as="geometry" />
        </mxCell>
        <mxCell id="Xy3a7Pi1iB7YRdmvzZVX-9" value="(Output)&lt;br style=&quot;font-size: 12px;&quot;&gt;Organisation" style="strokeWidth=3;whiteSpace=wrap;html=1;align=center;fontSize=12;fillColor=none;strokeColor=#6c8ebf;" parent="Xy3a7Pi1iB7YRdmvzZVX-7" vertex="1">
          <mxGeometry x="170" y="10" width="70" height="40" as="geometry" />
        </mxCell>
        <mxCell id="Xy3a7Pi1iB7YRdmvzZVX-10" value="(Input)&lt;br style=&quot;font-size: 12px;&quot;&gt;Organisation&lt;br style=&quot;font-size: 12px;&quot;&gt;Add/Update" style="strokeWidth=3;whiteSpace=wrap;html=1;align=center;fontSize=12;fillColor=none;strokeColor=#6c8ebf;" parent="Xy3a7Pi1iB7YRdmvzZVX-7" vertex="1">
          <mxGeometry x="250" y="10" width="70" height="40" as="geometry" />
        </mxCell>
        <mxCell id="Xy3a7Pi1iB7YRdmvzZVX-11" value="&lt;font style=&quot;font-size: 12px;&quot;&gt;(Output)&lt;br style=&quot;font-size: 12px;&quot;&gt;Summary &lt;br style=&quot;font-size: 12px;&quot;&gt;Item&lt;/font&gt;" style="strokeWidth=3;whiteSpace=wrap;html=1;align=center;fontSize=12;fillColor=none;strokeColor=#6c8ebf;dashed=1;" parent="Xy3a7Pi1iB7YRdmvzZVX-7" vertex="1">
          <mxGeometry x="120" y="10" width="40" height="40" as="geometry" />
        </mxCell>
        <mxCell id="Xy3a7Pi1iB7YRdmvzZVX-12" value="Organisation Member&lt;br style=&quot;font-size: 12px;&quot;&gt;Group" style="rounded=1;whiteSpace=wrap;html=1;strokeColor=#666666;strokeWidth=1;fillColor=none;dashed=1;verticalAlign=top;align=left;spacingLeft=4;spacing=0;spacingTop=-5;fontColor=#666666;arcSize=16;absoluteArcSize=1;collapsible=0;container=1;recursiveResize=0;fontSize=12;labelBackgroundColor=none;horizontal=0;" parent="P0Z7KiHGcuCMTp32M4vC-0" vertex="1">
          <mxGeometry x="460" y="240" width="190" height="130" as="geometry" />
        </mxCell>
        <mxCell id="Xy3a7Pi1iB7YRdmvzZVX-13" value="(Input)&lt;br style=&quot;font-size: 10px;&quot;&gt;Organisation&lt;br style=&quot;font-size: 10px;&quot;&gt;&amp;nbsp;Member.Group List Query Filter" style="strokeWidth=3;whiteSpace=wrap;html=1;align=center;fontSize=10;fillColor=none;strokeColor=#6c8ebf;" parent="Xy3a7Pi1iB7YRdmvzZVX-12" vertex="1">
          <mxGeometry x="30" y="10" width="70" height="40" as="geometry" />
        </mxCell>
        <mxCell id="Xy3a7Pi1iB7YRdmvzZVX-14" value="(Output)&lt;br style=&quot;font-size: 12px;&quot;&gt;Organisation&amp;nbsp;&lt;br style=&quot;font-size: 12px;&quot;&gt;Member.Group" style="strokeWidth=3;whiteSpace=wrap;html=1;align=center;fontSize=12;fillColor=none;strokeColor=#6c8ebf;" parent="Xy3a7Pi1iB7YRdmvzZVX-12" vertex="1">
          <mxGeometry x="30" y="80" width="70" height="40" as="geometry" />
        </mxCell>
        <mxCell id="Xy3a7Pi1iB7YRdmvzZVX-15" value="(Input)&lt;br style=&quot;font-size: 10px;&quot;&gt;Organisation&amp;nbsp;&lt;br style=&quot;font-size: 10px;&quot;&gt;Member.Group&lt;br style=&quot;font-size: 10px;&quot;&gt;Add/Update" style="strokeWidth=3;whiteSpace=wrap;html=1;align=center;fontSize=10;fillColor=none;strokeColor=#6c8ebf;" parent="Xy3a7Pi1iB7YRdmvzZVX-12" vertex="1">
          <mxGeometry x="110" y="80" width="70" height="40" as="geometry" />
        </mxCell>
        <mxCell id="Xy3a7Pi1iB7YRdmvzZVX-16" value="&lt;font style=&quot;font-size: 12px;&quot;&gt;(Output)&lt;br style=&quot;font-size: 12px;&quot;&gt;Summary &lt;br style=&quot;font-size: 12px;&quot;&gt;Item&lt;/font&gt;" style="strokeWidth=3;whiteSpace=wrap;html=1;align=center;fontSize=12;fillColor=none;strokeColor=#6c8ebf;dashed=1;" parent="Xy3a7Pi1iB7YRdmvzZVX-12" vertex="1">
          <mxGeometry x="110" y="10" width="40" height="40" as="geometry" />
        </mxCell>
        <mxCell id="Xy3a7Pi1iB7YRdmvzZVX-17" value="&lt;span style=&quot;color: rgb(0, 0, 0); font-size: 12px; text-align: center;&quot;&gt;Organisation&lt;br style=&quot;font-size: 12px;&quot;&gt;&lt;/span&gt;Role" style="rounded=1;whiteSpace=wrap;html=1;strokeColor=#666666;strokeWidth=1;fillColor=none;dashed=1;verticalAlign=top;align=left;spacingLeft=4;spacing=0;spacingTop=-5;fontColor=#666666;arcSize=16;absoluteArcSize=1;collapsible=0;container=1;recursiveResize=0;fontSize=12;labelBackgroundColor=none;horizontal=0;" parent="P0Z7KiHGcuCMTp32M4vC-0" vertex="1">
          <mxGeometry x="120" y="450" width="410" height="60" as="geometry" />
        </mxCell>
        <mxCell id="Xy3a7Pi1iB7YRdmvzZVX-18" value="(Output)&lt;br style=&quot;font-size: 12px;&quot;&gt;Organisation&lt;br style=&quot;font-size: 12px;&quot;&gt;Role&amp;nbsp;" style="strokeWidth=3;whiteSpace=wrap;html=1;align=center;fontSize=12;fillColor=none;strokeColor=#6c8ebf;" parent="Xy3a7Pi1iB7YRdmvzZVX-17" vertex="1">
          <mxGeometry x="170" y="10" width="70" height="40" as="geometry" />
        </mxCell>
        <mxCell id="Xy3a7Pi1iB7YRdmvzZVX-19" value="(Input)&lt;br style=&quot;font-size: 10px;&quot;&gt;Organisation&lt;br style=&quot;font-size: 10px;&quot;&gt;&amp;nbsp;Role Add/Update " style="strokeWidth=3;whiteSpace=wrap;html=1;align=center;fontSize=10;fillColor=none;strokeColor=#6c8ebf;" parent="Xy3a7Pi1iB7YRdmvzZVX-17" vertex="1">
          <mxGeometry x="250" y="10" width="70" height="40" as="geometry" />
        </mxCell>
        <mxCell id="Xy3a7Pi1iB7YRdmvzZVX-20" value="(Input)&lt;br style=&quot;font-size: 10px;&quot;&gt;Organisation&amp;nbsp;Role&lt;br style=&quot;font-size: 10px;&quot;&gt;List Query Filter" style="strokeWidth=3;whiteSpace=wrap;html=1;align=center;fontSize=10;fillColor=none;strokeColor=#6c8ebf;" parent="Xy3a7Pi1iB7YRdmvzZVX-17" vertex="1">
          <mxGeometry x="30" y="10" width="80" height="40" as="geometry" />
        </mxCell>
        <mxCell id="Xy3a7Pi1iB7YRdmvzZVX-21" value="(Input)&lt;br style=&quot;font-size: 10px;&quot;&gt;Organisation Role&amp;nbsp;&lt;br style=&quot;font-size: 10px;&quot;&gt;&lt;font style=&quot;font-size: 10px;&quot;&gt;Allocate Permissions&lt;/font&gt;" style="strokeWidth=3;whiteSpace=wrap;html=1;align=center;fontSize=10;fillColor=none;strokeColor=#6c8ebf;" parent="Xy3a7Pi1iB7YRdmvzZVX-17" vertex="1">
          <mxGeometry x="330" y="10.16203992120154" width="70" height="40" as="geometry" />
        </mxCell>
        <mxCell id="Xy3a7Pi1iB7YRdmvzZVX-22" value="&lt;font style=&quot;font-size: 12px;&quot;&gt;(Output)&lt;br style=&quot;font-size: 12px;&quot;&gt;Summary &lt;br style=&quot;font-size: 12px;&quot;&gt;Item&lt;/font&gt;" style="strokeWidth=3;whiteSpace=wrap;html=1;align=center;fontSize=12;fillColor=none;strokeColor=#6c8ebf;dashed=1;" parent="Xy3a7Pi1iB7YRdmvzZVX-17" vertex="1">
          <mxGeometry x="120" y="10.241345635775863" width="40" height="40" as="geometry" />
        </mxCell>
        <mxCell id="Xy3a7Pi1iB7YRdmvzZVX-23" value="&lt;span style=&quot;color: rgb(0, 0, 0); font-size: 12px; text-align: center;&quot;&gt;Organisation&lt;/span&gt;&amp;nbsp;&lt;br style=&quot;font-size: 12px;&quot;&gt;&lt;font style=&quot;font-size: 12px;&quot;&gt;Media Metadata&lt;/font&gt;" style="rounded=1;whiteSpace=wrap;html=1;strokeColor=#666666;strokeWidth=1;fillColor=none;dashed=1;verticalAlign=top;align=left;spacingLeft=4;spacing=0;spacingTop=-5;fontColor=#666666;arcSize=16;absoluteArcSize=1;collapsible=0;container=1;recursiveResize=0;fontSize=12;labelBackgroundColor=none;horizontal=0;" parent="P0Z7KiHGcuCMTp32M4vC-0" vertex="1">
          <mxGeometry x="120" y="520" width="490" height="60" as="geometry" />
        </mxCell>
        <mxCell id="Xy3a7Pi1iB7YRdmvzZVX-24" value="(Output)&lt;br style=&quot;font-size: 12px;&quot;&gt;Organisation&lt;br style=&quot;font-size: 12px;&quot;&gt;&amp;nbsp;Media&amp;nbsp;" style="strokeWidth=3;whiteSpace=wrap;html=1;align=center;fontSize=12;fillColor=none;strokeColor=#6c8ebf;" parent="Xy3a7Pi1iB7YRdmvzZVX-23" vertex="1">
          <mxGeometry x="170" y="10" width="70" height="40" as="geometry" />
        </mxCell>
        <mxCell id="Xy3a7Pi1iB7YRdmvzZVX-25" value="(Input)&lt;br style=&quot;font-size: 10px;&quot;&gt;Organisation&lt;br style=&quot;font-size: 10px;&quot;&gt;&amp;nbsp;Media Add/Update " style="strokeWidth=3;whiteSpace=wrap;html=1;align=center;fontSize=10;fillColor=none;strokeColor=#6c8ebf;" parent="Xy3a7Pi1iB7YRdmvzZVX-23" vertex="1">
          <mxGeometry x="250" y="10" width="70" height="40" as="geometry" />
        </mxCell>
        <mxCell id="Xy3a7Pi1iB7YRdmvzZVX-26" value="(Input)&lt;br style=&quot;font-size: 10px;&quot;&gt;Organisation&amp;nbsp;Media&lt;br style=&quot;font-size: 10px;&quot;&gt;List Query Filter" style="strokeWidth=3;whiteSpace=wrap;html=1;align=center;fontSize=10;fillColor=none;strokeColor=#6c8ebf;" parent="Xy3a7Pi1iB7YRdmvzZVX-23" vertex="1">
          <mxGeometry x="30" y="10" width="80" height="40" as="geometry" />
        </mxCell>
        <mxCell id="Xy3a7Pi1iB7YRdmvzZVX-27" value="(Input)&lt;br style=&quot;font-size: 10px;&quot;&gt;Organisation&amp;nbsp;Media Change Status&amp;nbsp;" style="strokeWidth=3;whiteSpace=wrap;html=1;align=center;fontSize=10;fillColor=none;strokeColor=#6c8ebf;" parent="Xy3a7Pi1iB7YRdmvzZVX-23" vertex="1">
          <mxGeometry x="330" y="10" width="70" height="40" as="geometry" />
        </mxCell>
        <mxCell id="Xy3a7Pi1iB7YRdmvzZVX-28" value="&lt;font style=&quot;font-size: 12px;&quot;&gt;(Output)&lt;br style=&quot;font-size: 12px;&quot;&gt;Summary &lt;br style=&quot;font-size: 12px;&quot;&gt;Item&lt;/font&gt;" style="strokeWidth=3;whiteSpace=wrap;html=1;align=center;fontSize=12;fillColor=none;strokeColor=#6c8ebf;dashed=1;" parent="Xy3a7Pi1iB7YRdmvzZVX-23" vertex="1">
          <mxGeometry x="120" y="10.241345635775872" width="40" height="40" as="geometry" />
        </mxCell>
        <mxCell id="Xy3a7Pi1iB7YRdmvzZVX-29" value="(Input)&lt;br style=&quot;font-size: 10px;&quot;&gt;Organisation&amp;nbsp;Media Change State&amp;nbsp;" style="strokeWidth=3;whiteSpace=wrap;html=1;align=center;fontSize=10;fillColor=none;strokeColor=#6c8ebf;" parent="Xy3a7Pi1iB7YRdmvzZVX-23" vertex="1">
          <mxGeometry x="410" y="10" width="70" height="40" as="geometry" />
        </mxCell>
        <mxCell id="Xy3a7Pi1iB7YRdmvzZVX-30" value="&lt;span style=&quot;color: rgb(0, 0, 0); font-size: 12px; text-align: center;&quot;&gt;Organisation&lt;/span&gt;&amp;nbsp;&lt;br style=&quot;font-size: 12px;&quot;&gt;Member&lt;br style=&quot;font-size: 12px;&quot;&gt;Invite" style="rounded=1;whiteSpace=wrap;html=1;strokeColor=#666666;strokeWidth=1;fillColor=none;dashed=1;verticalAlign=top;align=left;spacingLeft=4;spacing=0;spacingTop=-5;fontColor=#666666;arcSize=16;absoluteArcSize=1;collapsible=0;container=1;recursiveResize=0;fontSize=12;labelBackgroundColor=none;horizontal=0;" parent="P0Z7KiHGcuCMTp32M4vC-0" vertex="1">
          <mxGeometry x="122" y="380" width="408" height="60" as="geometry" />
        </mxCell>
        <mxCell id="Xy3a7Pi1iB7YRdmvzZVX-31" value="(Output)&lt;br style=&quot;font-size: 12px;&quot;&gt;Organisation&lt;br style=&quot;font-size: 12px;&quot;&gt;&amp;nbsp;Invitation&amp;nbsp;" style="strokeWidth=3;whiteSpace=wrap;html=1;align=center;fontSize=12;fillColor=none;strokeColor=#6c8ebf;" parent="Xy3a7Pi1iB7YRdmvzZVX-30" vertex="1">
          <mxGeometry x="170" y="10" width="70" height="40" as="geometry" />
        </mxCell>
        <mxCell id="Xy3a7Pi1iB7YRdmvzZVX-32" value="(Input)&lt;br style=&quot;font-size: 10px;&quot;&gt;Organisation&lt;br style=&quot;font-size: 10px;&quot;&gt;&amp;nbsp;Invitation Add" style="strokeWidth=3;whiteSpace=wrap;html=1;align=center;fontSize=10;fillColor=none;strokeColor=#6c8ebf;" parent="Xy3a7Pi1iB7YRdmvzZVX-30" vertex="1">
          <mxGeometry x="250" y="10" width="70" height="40" as="geometry" />
        </mxCell>
        <mxCell id="Xy3a7Pi1iB7YRdmvzZVX-33" value="(Input)&lt;br style=&quot;font-size: 10px;&quot;&gt;Org Invitation&lt;br style=&quot;font-size: 10px;&quot;&gt;List Query Filter" style="strokeWidth=3;whiteSpace=wrap;html=1;align=center;fontSize=10;fillColor=none;strokeColor=#6c8ebf;" parent="Xy3a7Pi1iB7YRdmvzZVX-30" vertex="1">
          <mxGeometry x="30" y="10" width="80" height="40" as="geometry" />
        </mxCell>
        <mxCell id="Xy3a7Pi1iB7YRdmvzZVX-34" value="&lt;font style=&quot;font-size: 12px;&quot;&gt;(Output)&lt;br style=&quot;font-size: 12px;&quot;&gt;Summary &lt;br style=&quot;font-size: 12px;&quot;&gt;Item&lt;/font&gt;" style="strokeWidth=3;whiteSpace=wrap;html=1;align=center;fontSize=12;fillColor=none;strokeColor=#6c8ebf;dashed=1;" parent="Xy3a7Pi1iB7YRdmvzZVX-30" vertex="1">
          <mxGeometry x="120" y="10" width="40" height="40" as="geometry" />
        </mxCell>
        <mxCell id="Xy3a7Pi1iB7YRdmvzZVX-35" value="(Input)&lt;br style=&quot;font-size: 10px;&quot;&gt;Tenant Organisation&lt;br style=&quot;font-size: 10px;&quot;&gt;&amp;nbsp;Change.Status" style="strokeWidth=3;whiteSpace=wrap;html=1;align=center;fontSize=10;fillColor=none;strokeColor=#6c8ebf;" parent="Xy3a7Pi1iB7YRdmvzZVX-30" vertex="1">
          <mxGeometry x="328" y="10" width="70" height="40" as="geometry" />
        </mxCell>
        <mxCell id="Mku4cl_VxoHvjAN-RrQG-0" value="Context/Legend" parent="Xy3a7Pi1iB7YRdmvzZVX-0" />
        <mxCell id="Mku4cl_VxoHvjAN-RrQG-1" value="" style="rounded=0;whiteSpace=wrap;html=1;fontSize=10;align=left;container=1;collapsible=0;fontColor=#B3B3B3;strokeColor=#B3B3B3;" parent="Mku4cl_VxoHvjAN-RrQG-0" vertex="1">
          <mxGeometry x="440" y="180" width="240" height="50" as="geometry" />
        </mxCell>
        <mxCell id="Mku4cl_VxoHvjAN-RrQG-2" value="" style="whiteSpace=wrap;html=1;aspect=fixed;fillColor=none;strokeColor=#82b366;fontSize=10;align=left;fontStyle=2;strokeWidth=2;" parent="Mku4cl_VxoHvjAN-RrQG-1" vertex="1">
          <mxGeometry x="13.294460641399398" y="16.666666666666668" width="8.333333333333334" height="8.333333333333334" as="geometry" />
        </mxCell>
        <mxCell id="Mku4cl_VxoHvjAN-RrQG-3" value="" style="whiteSpace=wrap;html=1;aspect=fixed;fillColor=none;strokeColor=#d6b656;fontSize=10;align=left;fontStyle=2;strokeWidth=2;" parent="Mku4cl_VxoHvjAN-RrQG-1" vertex="1">
          <mxGeometry x="13.294460641399398" y="28" width="8.333333333333334" height="8.333333333333334" as="geometry" />
        </mxCell>
        <mxCell id="Mku4cl_VxoHvjAN-RrQG-4" value="" style="whiteSpace=wrap;html=1;aspect=fixed;fillColor=none;strokeColor=#6c8ebf;fontSize=10;align=left;fontStyle=2;strokeWidth=2;" parent="Mku4cl_VxoHvjAN-RrQG-1" vertex="1">
          <mxGeometry x="13.294460641399398" y="39.333333333333336" width="8.333333333333334" height="8.333333333333334" as="geometry" />
        </mxCell>
        <mxCell id="Mku4cl_VxoHvjAN-RrQG-5" value="Internal, System (underlying optional Tenants)&amp;nbsp;" style="text;html=1;strokeColor=none;fillColor=none;align=left;verticalAlign=middle;whiteSpace=wrap;rounded=0;fontSize=10;fontStyle=2;fontColor=#B3B3B3;" parent="Mku4cl_VxoHvjAN-RrQG-1" vertex="1">
          <mxGeometry x="26.5945189504373" y="16.666666666666668" width="213.40548104956264" height="8.333333333333334" as="geometry" />
        </mxCell>
        <mxCell id="Mku4cl_VxoHvjAN-RrQG-6" value="Internal, (optionally) Tenanted" style="text;html=1;strokeColor=none;fillColor=none;align=left;verticalAlign=middle;whiteSpace=wrap;rounded=0;fontSize=10;fontStyle=2;fontColor=#B3B3B3;" parent="Mku4cl_VxoHvjAN-RrQG-1" vertex="1">
          <mxGeometry x="26.59" y="30" width="213.41" height="6.33" as="geometry" />
        </mxCell>
        <mxCell id="Mku4cl_VxoHvjAN-RrQG-7" value="External, Versioned Contracts/Msgs" style="text;html=1;strokeColor=none;fillColor=none;align=left;verticalAlign=middle;whiteSpace=wrap;rounded=0;fontSize=10;fontStyle=2;fontColor=#B3B3B3;" parent="Mku4cl_VxoHvjAN-RrQG-1" vertex="1">
          <mxGeometry x="26.5945189504373" y="39.333333333333336" width="213.40548104956264" height="8.333333333333334" as="geometry" />
        </mxCell>
        <mxCell id="Mku4cl_VxoHvjAN-RrQG-8" value="Legend" style="text;html=1;strokeColor=none;fillColor=none;align=center;verticalAlign=middle;whiteSpace=wrap;rounded=0;fontSize=10;fontStyle=5;fontColor=#B3B3B3;" parent="Mku4cl_VxoHvjAN-RrQG-1" vertex="1">
          <mxGeometry x="26.588921282798815" width="159.53352769679296" height="16.666666666666668" as="geometry" />
        </mxCell>
        <mxCell id="P0Z7KiHGcuCMTp32M4vC-2" value="Title/Diagram" parent="Xy3a7Pi1iB7YRdmvzZVX-0" />
        <mxCell id="P0Z7KiHGcuCMTp32M4vC-3" value="&lt;font style=&quot;font-weight: normal&quot; size=&quot;1&quot;&gt;&lt;i style=&quot;font-size: 12px&quot;&gt;Diagram: Information Messages - System Messages (DTOs) (Cont)&lt;/i&gt;&lt;/font&gt;" style="text;strokeColor=none;fillColor=none;html=1;fontSize=24;fontStyle=1;verticalAlign=middle;align=left;shadow=0;glass=0;comic=0;opacity=30;fontColor=#808080;" parent="P0Z7KiHGcuCMTp32M4vC-2" vertex="1">
          <mxGeometry x="120" y="620" width="520" height="20" as="geometry" />
        </mxCell>
        <mxCell id="P0Z7KiHGcuCMTp32M4vC-1" value="Title/Page" parent="Xy3a7Pi1iB7YRdmvzZVX-0" visible="0" />
        <mxCell id="J8CXWFhBicdehxt6l27l-0" value="" style="group;fontSize=10;" parent="P0Z7KiHGcuCMTp32M4vC-1" vertex="1" connectable="0">
          <mxGeometry x="120" y="120" width="560" height="50" as="geometry" />
        </mxCell>
        <mxCell id="J8CXWFhBicdehxt6l27l-1" value="&lt;font style=&quot;font-size: 12px&quot;&gt;Information - API Messages (DTOs) (Cont)&lt;/font&gt;" style="text;strokeColor=none;fillColor=none;html=1;fontSize=24;fontStyle=1;verticalAlign=middle;align=left;shadow=0;glass=0;comic=0;opacity=30;fontColor=#808080;" parent="J8CXWFhBicdehxt6l27l-0" vertex="1">
          <mxGeometry width="560" height="40" as="geometry" />
        </mxCell>
        <mxCell id="J8CXWFhBicdehxt6l27l-2" value="" style="line;strokeWidth=2;html=1;shadow=0;glass=0;comic=0;fillColor=none;fontSize=10;fontColor=#CCCCCC;labelBackgroundColor=none;strokeColor=#CCCCCC;" parent="J8CXWFhBicdehxt6l27l-0" vertex="1">
          <mxGeometry y="35" width="560" height="10" as="geometry" />
        </mxCell>
        <mxCell id="Xy3a7Pi1iB7YRdmvzZVX-1" value="About" parent="Xy3a7Pi1iB7YRdmvzZVX-0" />
        <UserObject label="" tooltip="ABOUT&#xa;&#xa;Internally, Systems use internal OO Entities, with Behaviour. &#xa;Behaviour cannot be transferred across the wire (ie, APIs) -- one of the reasons that internal Entities are Mapped to External Data Transfer Objects (basically OO objects without Behaviour/Methods). Other reasons include improving Security by not exposing internal system architecture choices, and improved Maintainability objectives (by being able to use Versioned DTOs to minimize disruption to Service Clients when internal Entity attributes have to be updated/changed)." id="MB5bvXc0AEAQgcbkT2IZ-0">
          <mxCell style="shape=image;html=1;verticalAlign=top;verticalLabelPosition=bottom;labelBackgroundColor=#ffffff;imageAspect=0;aspect=fixed;image=https://cdn1.iconfinder.com/data/icons/hawcons/32/699014-icon-28-information-128.png;shadow=0;dashed=0;fontFamily=Helvetica;fontSize=12;fontColor=#000000;align=center;strokeColor=#000000;fillColor=#505050;dashPattern=1 1;" parent="Xy3a7Pi1iB7YRdmvzZVX-1" vertex="1">
            <mxGeometry x="660" y="620" width="20" height="20" as="geometry" />
          </mxCell>
        </UserObject>
      </root>
    </mxGraphModel>
  </diagram>
</mxfile>
